#N canvas 766 250 418 458 10;
#X declare -path ../bin;
#X obj 262 1 cnv 15 140 50 \$0-boardName_out \$0-boardName /b00 10
24 0 48 -233017 -66577 0;
#N canvas 425 177 1498 873 display_cs 0;
#X obj 205 -61 inlet;
#X obj 743 -3 nbx 5 14 -1e+37 1e+37 0 1 empty empty empty 0 -8 0 10
-262144 -1 -1 1000 256;
#X obj 300 -13 outlet;
#X obj 205 -13 routeOSC /cs;
#X floatatom 1166 334 5 0 0 0 scale - -, f 5;
#X floatatom 1198 360 5 0 0 0 offset - -, f 5;
#X obj 584 674 cnv 15 24 20 empty \$0-label_8 CS8 1 10 0 12 -24198
-1 0;
#X obj 1148 450 spigot;
#X obj 1181 414 r \$0-gui;
#X obj 458 14 tgl 15 0 \$0-gui empty gui 17 7 0 10 -262144 -1 -1 0
1;
#X obj 205 9 routeOSC /enable;
#X obj 885 -3 nbx 5 14 -1e+37 1e+37 0 1 empty empty empty 0 -8 0 10
-262144 -1 -1 23 256;
#X obj 1026 -3 nbx 5 14 -1e+37 1e+37 0 1 empty empty empty 0 -8 0 10
-262144 -1 -1 1 256;
#X obj 380 -53 nbx 5 14 -1e+37 1e+37 0 1 empty empty empty 0 -8 0 10
-262144 -1 -1 96 256;
#X obj 1205 2 nbx 5 14 -1e+37 1e+37 0 1 empty empty empty 0 -8 0 10
-262144 -1 -1 0.67 256;
#X obj 1026 16 / 1000;
#X obj 1241 248 loadbang;
#X msg 1241 270 1.5;
#X obj 205 96 unpack 0 0 0 0 0 0 0 0 0, f 26;
#X obj 743 17 s \$1-cs_hp_filter_freq;
#X obj 885 16 s \$1-cs_lp_filter_freq;
#X msg 1209 106 reset;
#X obj 1026 51 s \$1-gain;
#X obj 938 -38 bng 15 250 50 0 empty empty empty 17 7 0 10 -262144
-1 -1;
#X obj 71 733 list trim;
#X obj 71 783 s sendOSC;
#X obj 1338 61 s \$1-cs_filter_reset;
#X obj 1338 41 bng 15 250 50 0 empty empty reset_filter 17 7 0 10 -262144
-1 -1;
#X floatatom 588 514 5 0 0 0 - - -, f 5;
#X obj 588 538 vsl 20 128 0 8 0 0 empty empty empty 0 -9 0 10 -262144
-1 -1 0 1;
#X obj 1148 472 speedlimit 40;
#X obj 1352 5 del 10000;
#X obj 298 32 routeOSC /*;
#X obj 71 755 route list;
#X obj 174 418 timer;
#X obj 187 362 t b b;
#X floatatom 174 440 5 0 0 0 - - -, f 5;
#X obj 187 829 print;
#X obj 196 781 spigot;
#X obj 235 754 tgl 15 0 empty empty empty 17 7 0 10 -262144 -1 -1 0
1;
#X obj 380 -34 s \$1-cs_notch_freq;
#X obj 1205 21 s \$1-cs_notch_width;
#N canvas 1 113 361 352 update-gui 0;
#X obj 51 41 inlet;
#X obj 51 73 unpack 0 0 0 0 0 0 0 0 0, f 38;
#N canvas 1 85 450 300 setcolor 0;
#X obj 125 59 sel -2 -1;
#X obj 176 146 once 1;
#X obj 176 87 t b;
#X obj 150 112 t b;
#X obj 125 31 change;
#X obj 130 258 s \$0-label_0;
#X msg 51 213 color 13 22;
#X msg 130 213 color 1 22;
#X msg 204 213 color 16 22;
#X obj 125 6 inlet;
#X connect 0 0 3 0;
#X connect 0 0 6 0;
#X connect 0 1 3 0;
#X connect 0 1 7 0;
#X connect 0 2 2 0;
#X connect 1 0 8 0;
#X connect 2 0 1 0;
#X connect 3 0 1 1;
#X connect 4 0 0 0;
#X connect 6 0 5 0;
#X connect 7 0 5 0;
#X connect 8 0 5 0;
#X connect 9 0 4 0;
#X restore 51 267 pd setcolor;
#N canvas 1 90 450 300 setcolor 0;
#X obj 125 59 sel -2 -1;
#X obj 176 146 once 1;
#X obj 176 87 t b;
#X obj 150 112 t b;
#X obj 125 31 change;
#X msg 51 213 color 13 22;
#X msg 130 213 color 1 22;
#X msg 204 213 color 16 22;
#X obj 125 6 inlet;
#X obj 130 258 s \$0-label_1;
#X connect 0 0 3 0;
#X connect 0 0 5 0;
#X connect 0 1 3 0;
#X connect 0 1 6 0;
#X connect 0 2 2 0;
#X connect 1 0 7 0;
#X connect 2 0 1 0;
#X connect 3 0 1 1;
#X connect 4 0 0 0;
#X connect 5 0 9 0;
#X connect 6 0 9 0;
#X connect 7 0 9 0;
#X connect 8 0 4 0;
#X restore 81 247 pd setcolor;
#N canvas 1 90 450 300 setcolor 0;
#X obj 125 59 sel -2 -1;
#X obj 176 146 once 1;
#X obj 176 87 t b;
#X obj 150 112 t b;
#X obj 125 31 change;
#X msg 51 213 color 13 22;
#X msg 130 213 color 1 22;
#X msg 204 213 color 16 22;
#X obj 125 6 inlet;
#X obj 130 258 s \$0-label_2;
#X connect 0 0 3 0;
#X connect 0 0 5 0;
#X connect 0 1 3 0;
#X connect 0 1 6 0;
#X connect 0 2 2 0;
#X connect 1 0 7 0;
#X connect 2 0 1 0;
#X connect 3 0 1 1;
#X connect 4 0 0 0;
#X connect 5 0 9 0;
#X connect 6 0 9 0;
#X connect 7 0 9 0;
#X connect 8 0 4 0;
#X restore 111 227 pd setcolor;
#N canvas 1 90 450 300 setcolor 0;
#X obj 125 59 sel -2 -1;
#X obj 176 146 once 1;
#X obj 176 87 t b;
#X obj 150 112 t b;
#X obj 125 31 change;
#X msg 51 213 color 13 22;
#X msg 130 213 color 1 22;
#X msg 204 213 color 16 22;
#X obj 125 6 inlet;
#X obj 130 258 s \$0-label_3;
#X connect 0 0 3 0;
#X connect 0 0 5 0;
#X connect 0 1 3 0;
#X connect 0 1 6 0;
#X connect 0 2 2 0;
#X connect 1 0 7 0;
#X connect 2 0 1 0;
#X connect 3 0 1 1;
#X connect 4 0 0 0;
#X connect 5 0 9 0;
#X connect 6 0 9 0;
#X connect 7 0 9 0;
#X connect 8 0 4 0;
#X restore 131 207 pd setcolor;
#N canvas 1 95 450 300 setcolor 0;
#X obj 125 59 sel -2 -1;
#X obj 176 146 once 1;
#X obj 176 87 t b;
#X obj 150 112 t b;
#X obj 125 31 change;
#X msg 51 213 color 13 22;
#X msg 130 213 color 1 22;
#X msg 204 213 color 16 22;
#X obj 125 6 inlet;
#X obj 130 258 s \$0-label_4;
#X connect 0 0 3 0;
#X connect 0 0 5 0;
#X connect 0 1 3 0;
#X connect 0 1 6 0;
#X connect 0 2 2 0;
#X connect 1 0 7 0;
#X connect 2 0 1 0;
#X connect 3 0 1 1;
#X connect 4 0 0 0;
#X connect 5 0 9 0;
#X connect 6 0 9 0;
#X connect 7 0 9 0;
#X connect 8 0 4 0;
#X restore 161 187 pd setcolor;
#N canvas 1 95 450 300 setcolor 0;
#X obj 125 59 sel -2 -1;
#X obj 176 146 once 1;
#X obj 176 87 t b;
#X obj 150 112 t b;
#X obj 125 31 change;
#X msg 51 213 color 13 22;
#X msg 130 213 color 1 22;
#X msg 204 213 color 16 22;
#X obj 125 6 inlet;
#X obj 130 258 s \$0-label_5;
#X connect 0 0 3 0;
#X connect 0 0 5 0;
#X connect 0 1 3 0;
#X connect 0 1 6 0;
#X connect 0 2 2 0;
#X connect 1 0 7 0;
#X connect 2 0 1 0;
#X connect 3 0 1 1;
#X connect 4 0 0 0;
#X connect 5 0 9 0;
#X connect 6 0 9 0;
#X connect 7 0 9 0;
#X connect 8 0 4 0;
#X restore 191 167 pd setcolor;
#N canvas 1 95 450 300 setcolor 0;
#X obj 125 59 sel -2 -1;
#X obj 176 146 once 1;
#X obj 176 87 t b;
#X obj 150 112 t b;
#X obj 125 31 change;
#X msg 51 213 color 13 22;
#X msg 130 213 color 1 22;
#X msg 204 213 color 16 22;
#X obj 125 6 inlet;
#X obj 130 258 s \$0-label_6;
#X connect 0 0 3 0;
#X connect 0 0 5 0;
#X connect 0 1 3 0;
#X connect 0 1 6 0;
#X connect 0 2 2 0;
#X connect 1 0 7 0;
#X connect 2 0 1 0;
#X connect 3 0 1 1;
#X connect 4 0 0 0;
#X connect 5 0 9 0;
#X connect 6 0 9 0;
#X connect 7 0 9 0;
#X connect 8 0 4 0;
#X restore 211 147 pd setcolor;
#N canvas 1 95 450 300 setcolor 0;
#X obj 125 59 sel -2 -1;
#X obj 176 146 once 1;
#X obj 176 87 t b;
#X obj 150 112 t b;
#X obj 125 31 change;
#X msg 51 213 color 13 22;
#X msg 130 213 color 1 22;
#X msg 204 213 color 16 22;
#X obj 125 6 inlet;
#X obj 130 258 s \$0-label_7;
#X connect 0 0 3 0;
#X connect 0 0 5 0;
#X connect 0 1 3 0;
#X connect 0 1 6 0;
#X connect 0 2 2 0;
#X connect 1 0 7 0;
#X connect 2 0 1 0;
#X connect 3 0 1 1;
#X connect 4 0 0 0;
#X connect 5 0 9 0;
#X connect 6 0 9 0;
#X connect 7 0 9 0;
#X connect 8 0 4 0;
#X restore 241 127 pd setcolor;
#N canvas 1 90 450 300 setcolor 0;
#X obj 125 59 sel -2 -1;
#X obj 176 146 once 1;
#X obj 176 87 t b;
#X obj 150 112 t b;
#X obj 125 31 change;
#X msg 51 213 color 13 22;
#X msg 130 213 color 1 22;
#X msg 204 213 color 16 22;
#X obj 125 6 inlet;
#X obj 130 258 s \$0-label_8;
#X connect 0 0 3 0;
#X connect 0 0 5 0;
#X connect 0 1 3 0;
#X connect 0 1 6 0;
#X connect 0 2 2 0;
#X connect 1 0 7 0;
#X connect 2 0 1 0;
#X connect 3 0 1 1;
#X connect 4 0 0 0;
#X connect 5 0 9 0;
#X connect 6 0 9 0;
#X connect 7 0 9 0;
#X connect 8 0 4 0;
#X restore 271 107 pd setcolor;
#X connect 0 0 1 0;
#X connect 1 0 2 0;
#X connect 1 1 3 0;
#X connect 1 2 4 0;
#X connect 1 3 5 0;
#X connect 1 4 6 0;
#X connect 1 5 7 0;
#X connect 1 6 8 0;
#X connect 1 7 9 0;
#X connect 1 8 10 0;
#X restore 361 76 pd update-gui;
#X obj 361 54 spigot;
#X obj 394 32 r \$0-gui;
#X obj 1218 -44 r reset_all_cs;
#X obj 71 542 spigot 0;
#X obj 1218 -22 t b b;
#X obj 1147 -33 del 200;
#X obj 941 708 s \$1-taboffset;
#X obj 116 521 r \$1-out_spigot;
#X obj 1324 -47 r \$1-reset;
#X obj 1148 190 cs_filter \$1;
#X floatatom 1327 153 5 0 0 0 - - -, f 5;
#X obj 194 807 t a b;
#X msg 253 805 0;
#X obj 71 713 list prepend /prox;
#X connect 0 0 3 0;
#X connect 1 0 19 0;
#X connect 3 0 10 0;
#X connect 3 1 2 0;
#X connect 7 0 30 0;
#X connect 8 0 7 1;
#X connect 10 1 32 0;
#X connect 11 0 20 0;
#X connect 12 0 15 0;
#X connect 13 0 40 0;
#X connect 14 0 41 0;
#X connect 15 0 22 0;
#X connect 16 0 17 0;
#X connect 17 0 5 0;
#X connect 18 0 35 0;
#X connect 18 8 52 0;
#X connect 18 8 53 0;
#X connect 21 0 52 0;
#X connect 23 0 11 0;
#X connect 23 0 1 0;
#X connect 23 0 12 0;
#X connect 23 0 13 0;
#X connect 23 0 14 0;
#X connect 23 0 31 0;
#X connect 24 0 33 0;
#X connect 27 0 26 0;
#X connect 28 0 29 0;
#X connect 30 0 28 0;
#X connect 31 0 27 0;
#X connect 32 1 18 0;
#X connect 32 1 43 0;
#X connect 33 1 25 0;
#X connect 33 1 38 0;
#X connect 34 0 36 0;
#X connect 35 0 34 0;
#X connect 35 1 34 1;
#X connect 38 0 54 0;
#X connect 39 0 38 1;
#X connect 43 0 42 0;
#X connect 44 0 43 1;
#X connect 45 0 47 0;
#X connect 46 0 56 0;
#X connect 47 0 48 0;
#X connect 47 1 27 0;
#X connect 50 0 46 1;
#X connect 51 0 47 0;
#X connect 52 0 7 0;
#X connect 52 0 56 0;
#X connect 54 0 37 0;
#X connect 54 1 55 0;
#X connect 55 0 39 0;
#X connect 56 0 24 0;
#X coords 0 -1 1 1 380 187 2 250 510;
#X restore 3 49 pd display_cs;
#X obj 3 349 outlet;
#N canvas 361 384 894 443 receiveOSC 0;
#X obj 228 5 loadbang;
#X obj 228 27 symbol \$1;
#X msg 228 49 set \$1;
#X obj 141 27 r OSCdispatch;
#X obj 141 161 tgl 15 0 \$0-display_cs empty display_cs 17 7 0 10 -262144
-1 -1 0 1;
#X obj 141 140 routeOSC /open;
#X obj 141 77 routeOSC /*;
#X obj 222 167 outlet;
#N canvas 1 112 450 456 stream_check 0;
#X obj 201 107 tgl 15 0 empty empty empty 17 7 0 10 -262144 -1 -1 1
1;
#X obj 201 87 stream_check 100;
#X obj 201 155 sel 1, f 19;
#X obj 228 227 s \$1-reset;
#X obj 174 43 inlet;
#X obj 174 65 t a a;
#X obj 174 298 outlet;
#X obj 201 177 del 10000;
#X obj 201 199 t b b;
#X msg 201 257 1;
#X obj 312 331 s \$1-out_spigot;
#X connect 0 0 2 0;
#X connect 1 0 0 0;
#X connect 2 0 7 0;
#X connect 2 1 10 0;
#X connect 4 0 5 0;
#X connect 5 0 6 0;
#X connect 5 1 1 0;
#X connect 7 0 8 0;
#X connect 8 0 9 0;
#X connect 8 1 3 0;
#X connect 9 0 10 0;
#X restore 141 112 pd stream_check;
#X connect 0 0 1 0;
#X connect 1 0 2 0;
#X connect 2 0 6 0;
#X connect 3 0 6 0;
#X connect 5 0 4 0;
#X connect 5 1 7 0;
#X connect 6 0 8 0;
#X connect 8 0 5 0;
#X restore 3 26 pd receiveOSC;
#X obj 3 6 tgl 15 0 empty empty monitor 17 7 0 10 -262144 -1 -1 0 1
;
#N canvas 1037 314 406 370 gui 0;
#X obj 20 5 loadbang;
#X obj 20 47 symbol \$1;
#X msg 20 69 label \$1;
#X obj 20 91 s \$0-boardName;
#X obj 76 5 bng 15 250 50 0 empty empty empty 17 7 0 10 -262144 -1
-1;
#X obj 137 92 list fromsymbol;
#X msg 137 114 \$4;
#X obj 271 229 hcs/window_name 1;
#X obj 220 251 pack s s, f 9;
#X obj 20 27 t b b;
#X obj 137 136 - 48;
#X obj 137 158 t f f;
#X obj 164 178 div 3;
#X obj 124 178 mod 3;
#X msg 220 273 wm geometry \$2 \$1;
#X obj 220 293 hcs/sys_gui;
#X obj 276 192 bng 15 250 50 0 empty empty empty 17 7 0 10 -262144
-1 -1;
#X msg 114 311 +\$1+\$2;
#X obj 114 333 symbol;
#X obj 113 290 pack;
#X floatatom 131 267 5 0 0 0 - - -, f 5;
#X floatatom 87 269 5 0 0 0 - - -, f 5;
#X obj 153 294 t b f;
#X obj 333 174 s board-\$1;
#X msg 333 152 vis 1;
#X obj 288 86 tgl 15 0 empty empty empty 17 7 0 10 -262144 -1 -1 1
1;
#X obj 288 106 s \$0-gui;
#X msg 288 65 1;
#X obj 145 233 * 550;
#X obj 124 200 + 1;
#X obj 101 228 * 450;
#X obj 96 5 r board_ontop;
#X connect 0 0 9 0;
#X connect 1 0 2 0;
#X connect 1 0 5 0;
#X connect 2 0 3 0;
#X connect 4 0 1 0;
#X connect 5 0 6 0;
#X connect 6 0 10 0;
#X connect 7 0 8 1;
#X connect 8 0 14 0;
#X connect 9 0 1 0;
#X connect 9 1 7 0;
#X connect 9 1 24 0;
#X connect 9 1 27 0;
#X connect 10 0 11 0;
#X connect 11 0 13 0;
#X connect 11 1 12 0;
#X connect 12 0 28 0;
#X connect 13 0 29 0;
#X connect 14 0 15 0;
#X connect 16 0 7 0;
#X connect 17 0 18 0;
#X connect 18 0 8 0;
#X connect 19 0 17 0;
#X connect 20 0 22 0;
#X connect 21 0 19 0;
#X connect 22 0 19 0;
#X connect 22 1 19 1;
#X connect 24 0 23 0;
#X connect 25 0 26 0;
#X connect 27 0 25 0;
#X connect 28 0 19 1;
#X connect 29 0 30 0;
#X connect 30 0 19 0;
#X connect 31 0 9 0;
#X restore 96 3 pd gui;
#X obj 96 22 declare -path ../bin;
#X obj 139 3 namecanvas board-\$1;
#X obj 3 281 routeOSC /s/t;
#X obj 78 301 print other_messages_\$1;
#X obj 3 302 iir 5;
#X floatatom 39 300 5 0 0 0 - - -, f 5;
#X obj 3 326 speedlimit 40;
#X connect 1 0 8 0;
#X connect 3 0 1 0;
#X connect 8 0 10 0;
#X connect 8 1 9 0;
#X connect 10 0 12 0;
#X connect 11 0 10 1;
#X connect 12 0 2 0;
