#N canvas 1027 185 682 526 10;
#X declare -path ../bin -path ../puremapping -path ../av;
#X obj 195 103 tgl 15 0 empty \$0-cs_on-in empty 17 7 0 10 -262144
-1 -1 0 1;
#X obj 123 104 tgl 15 0 empty \$0-fsr_on-in empty 17 7 0 10 -262144
-1 -1 0 1;
#X msg 123 124 /fsr/on \$1;
#X msg 195 124 /cs/on \$1;
#X floatatom 260 87 5 1 100 0 - #0-cs_sensibility-in -, f 5;
#X msg 260 124 /cs/sensibility \$1;
#X msg 501 199 /s/del \$1;
#X floatatom 501 162 5 0 0 0 - #0-del-in -, f 5;
#X obj 501 179 speedlimit 200;
#X obj 260 104 speedlimit 200;
#X floatatom 378 87 8 0 0 0 - - -, f 8;
#X obj 378 104 speedlimit 200;
#X msg 378 124 /cs/autocal \$1;
#X msg 122 148 /s;
#X floatatom 475 86 5 0 0 0 - #0-cs_timeout-in -, f 5;
#X obj 475 103 speedlimit 200;
#X msg 475 123 /cs/timeout \$1;
#X obj 339 40 tgl 15 0 empty \$0-cs_0-in 0 5 -5 0 10 -262144 -1 -1
0 1;
#X obj 354 40 tgl 15 0 empty \$0-cs_1-in empty 17 7 0 10 -262144 -1
-1 0 255;
#X obj 369 40 tgl 15 0 empty \$0-cs_2-in 2 5 -5 0 10 -262144 -1 -1
0 1;
#X obj 384 40 tgl 15 0 empty \$0-cs_3-in empty 17 7 0 10 -262144 -1
-1 0 255;
#X obj 399 40 tgl 15 0 empty \$0-cs_4-in 4 5 -5 0 10 -262144 -1 -1
0 1;
#X obj 414 40 tgl 15 0 empty \$0-cs_5-in empty 17 7 0 10 -262144 -1
-1 0 255;
#X obj 429 40 tgl 15 0 empty \$0-cs_6-in 6 5 -5 0 10 -262144 -1 -1
0 1;
#X obj 444 40 tgl 15 0 empty \$0-cs_7-in empty 17 7 0 10 -262144 -1
-1 0 255;
#X obj 459 40 tgl 15 0 empty \$0-cs_8-in 8 5 -5 0 10 -262144 -1 -1
0 1;
#N canvas 1 134 537 300 cs_enable 0;
#X obj 97 162 pack 0 0 0 0 0 0 0 0 0, f 54;
#X obj 110 103 t b f;
#X obj 71 65 inlet;
#X obj 110 65 inlet;
#X obj 150 103 t b f;
#X obj 150 65 inlet;
#X obj 190 103 t b f;
#X obj 190 65 inlet;
#X obj 230 103 t b f;
#X obj 230 65 inlet;
#X obj 270 103 t b f;
#X obj 270 65 inlet;
#X obj 310 103 t b f;
#X obj 310 65 inlet;
#X obj 350 103 t b f;
#X obj 350 65 inlet;
#X obj 390 103 t b f;
#X obj 390 65 inlet;
#X obj 97 206 list trim;
#X obj 97 248 outlet;
#X obj 97 184 list prepend /cs/enable;
#X obj 31 65 inlet;
#X obj 31 87 t b;
#X msg 31 109 /cs/enable;
#X obj 97 228 spigot 1;
#X obj 159 206 r cs_gate;
#X connect 0 0 20 0;
#X connect 1 0 0 0;
#X connect 1 1 0 1;
#X connect 2 0 0 0;
#X connect 3 0 1 0;
#X connect 4 0 0 0;
#X connect 4 1 0 2;
#X connect 5 0 4 0;
#X connect 6 0 0 0;
#X connect 6 1 0 3;
#X connect 7 0 6 0;
#X connect 8 0 0 0;
#X connect 8 1 0 4;
#X connect 9 0 8 0;
#X connect 10 0 0 0;
#X connect 10 1 0 5;
#X connect 11 0 10 0;
#X connect 12 0 0 0;
#X connect 12 1 0 6;
#X connect 13 0 12 0;
#X connect 14 0 0 0;
#X connect 14 1 0 7;
#X connect 15 0 14 0;
#X connect 16 0 0 0;
#X connect 16 1 0 8;
#X connect 17 0 16 0;
#X connect 18 0 24 0;
#X connect 20 0 18 0;
#X connect 21 0 22 0;
#X connect 22 0 23 0;
#X connect 23 0 19 0;
#X connect 24 0 19 0;
#X connect 25 0 24 1;
#X restore 339 59 pd cs_enable;
#X obj 193 438 cnv 15 140 50 empty \$0-boardName /* 10 24 0 48 -233017
-66577 0;
#X obj 384 420 loadbang;
#X obj 384 486 s \$0-boardName;
#X obj 440 420 bng 15 250 50 0 empty empty empty 17 7 0 10 -262144
-1 -1;
#X obj 57 52 tgl 15 0 empty \$0-fsr_0-in 0 5 -5 0 10 -262144 -1 -1
0 1;
#X obj 72 52 tgl 15 0 empty \$0-fsr_1-in empty 17 7 0 10 -262144 -1
-1 0 1;
#X obj 87 52 tgl 15 0 empty \$0-fsr_2-in 2 5 -5 0 10 -262144 -1 -1
0 1;
#X obj 102 52 tgl 15 0 empty \$0-fsr_3-in empty 17 7 0 10 -262144 -1
-1 0 1;
#X obj 117 52 tgl 15 0 empty \$0-fsr_4-in 4 5 -5 0 10 -262144 -1 -1
0 1;
#X obj 132 52 tgl 15 0 empty \$0-fsr_5-in empty 17 7 0 10 -262144 -1
-1 0 1;
#X obj 147 52 tgl 15 0 empty \$0-fsr_6-in 6 5 -5 0 10 -262144 -1 -1
0 1;
#X obj 162 52 tgl 15 0 empty \$0-fsr_7-in empty 17 7 0 10 -262144 -1
-1 0 1;
#X obj 177 52 tgl 15 0 empty \$0-fsr_8-in 8 5 -5 0 10 -262144 -1 -1
0 1;
#N canvas 1 169 537 300 fsr_enable 0;
#X obj 110 103 t b f;
#X obj 71 65 inlet;
#X obj 110 65 inlet;
#X obj 150 103 t b f;
#X obj 150 65 inlet;
#X obj 190 103 t b f;
#X obj 190 65 inlet;
#X obj 230 103 t b f;
#X obj 230 65 inlet;
#X obj 270 103 t b f;
#X obj 270 65 inlet;
#X obj 310 103 t b f;
#X obj 310 65 inlet;
#X obj 350 103 t b f;
#X obj 350 65 inlet;
#X obj 390 103 t b f;
#X obj 390 65 inlet;
#X obj 97 206 list trim;
#X obj 97 162 pack 0 0 0 0 0 0 0 0 0, f 54;
#X obj 97 184 list prepend /fsr/enable;
#X obj 97 248 spigot 1;
#X obj 142 226 r fsr_gate;
#X obj 22 65 inlet;
#X obj 22 87 t b;
#X msg 22 109 /fsr/enable;
#X obj 97 268 outlet;
#X connect 0 0 18 0;
#X connect 0 1 18 1;
#X connect 1 0 18 0;
#X connect 2 0 0 0;
#X connect 3 0 18 0;
#X connect 3 1 18 2;
#X connect 4 0 3 0;
#X connect 5 0 18 0;
#X connect 5 1 18 3;
#X connect 6 0 5 0;
#X connect 7 0 18 0;
#X connect 7 1 18 4;
#X connect 8 0 7 0;
#X connect 9 0 18 0;
#X connect 9 1 18 5;
#X connect 10 0 9 0;
#X connect 11 0 18 0;
#X connect 11 1 18 6;
#X connect 12 0 11 0;
#X connect 13 0 18 0;
#X connect 13 1 18 7;
#X connect 14 0 13 0;
#X connect 15 0 18 0;
#X connect 15 1 18 8;
#X connect 16 0 15 0;
#X connect 17 0 20 0;
#X connect 18 0 19 0;
#X connect 19 0 17 0;
#X connect 20 0 25 0;
#X connect 21 0 20 1;
#X connect 22 0 23 0;
#X connect 23 0 24 0;
#X connect 24 0 25 0;
#X restore 57 71 pd fsr_enable;
#X msg 19 202 /s/save;
#X msg 19 181 /s/load;
#N canvas 474 580 1445 499 receiveOSC 0;
#X obj 130 33 loadbang;
#X obj 120 11 r OSCdispatch;
#X msg 355 141 set \$1;
#N canvas 1 90 450 300 list-iter 0;
#X obj 150 65 inlet;
#X obj 150 93 list split 1;
#X obj 150 115 t b a;
#X obj 199 143 list;
#X obj 177 192 outlet;
#X connect 0 0 1 0;
#X connect 1 0 2 0;
#X connect 1 1 3 1;
#X connect 2 0 3 0;
#X connect 2 1 4 0;
#X connect 3 0 1 0;
#X restore 169 310 pd list-iter;
#X obj 169 290 t a b;
#X obj 169 461 send;
#X obj 251 363 f;
#X obj 276 363 + 1;
#X msg 266 343 0;
#X obj 169 332 t a b b;
#X obj 216 364 \$0;
#X obj 216 385 pack 0 0;
#X msg 216 407 \$1-fsr_\$2-in;
#X obj 120 99 routeOSC /*;
#X obj 195 34 bng 15 250 50 0 empty empty empty 17 7 0 10 -262144 -1
-1;
#X obj 216 429 symbol;
#X msg 412 141 set \$1;
#N canvas 1 90 450 300 list-iter 0;
#X obj 150 65 inlet;
#X obj 150 93 list split 1;
#X obj 150 115 t b a;
#X obj 199 143 list;
#X obj 177 192 outlet;
#X connect 0 0 1 0;
#X connect 1 0 2 0;
#X connect 1 1 3 1;
#X connect 2 0 3 0;
#X connect 2 1 4 0;
#X connect 3 0 1 0;
#X restore 369 310 pd list-iter;
#X obj 369 290 t a b;
#X obj 369 461 send;
#X obj 451 363 f;
#X obj 476 363 + 1;
#X msg 466 343 0;
#X obj 369 332 t a b b;
#X obj 416 364 \$0;
#X obj 416 385 pack 0 0;
#X obj 416 429 symbol;
#X msg 416 407 \$1-cs_\$2-in;
#X obj 412 161 s \$0-cs_on-in;
#X obj 355 181 s \$0-fsr_on-in;
#X obj 120 121 routeOSC /fsr/enable /cs/enable;
#X obj 355 118 routeOSC /fsr/on /cs/on /open;
#X obj 517 147 sel 1;
#X obj 517 167 s \$0-load_in;
#X obj 696 116 routeOSC /cs/sensibility /cs/timeout /cs/autocal;
#X obj 696 176 s \$0-cs_sensibility-in;
#X obj 791 156 s \$0-cs_timeout-in;
#X obj 886 136 s \$0-cs_autocal-in;
#X obj 120 186 t b a b;
#X obj 41 308 s fsr_gate;
#X msg 41 272 1;
#X msg 75 273 0;
#X obj 371 250 t b a b;
#X msg 502 289 1;
#X msg 536 290 0;
#X obj 502 325 s cs_gate;
#X obj 1000 136 s \$0-del-in;
#X obj 23 170 print received;
#X obj 23 149 spigot;
#X obj 56 128 tgl 15 0 empty empty empty 17 7 0 10 -262144 -1 -1 0
1;
#X obj 1000 116 routeOSC /s/del;
#X symbolatom 1108 190 12 0 0 0 - - -, f 12;
#X symbolatom 1183 191 10 0 0 0 - - -, f 10;
#X obj 1108 118 routeOSC /s/date /s/time;
#X obj 1108 151 symbol;
#X obj 1183 147 symbol;
#X text 1088 204 firmware build date and time;
#X obj 130 55 symbol \$1;
#X msg 130 77 set \$1;
#X connect 0 0 57 0;
#X connect 1 0 13 0;
#X connect 2 0 29 0;
#X connect 3 0 9 0;
#X connect 4 0 3 0;
#X connect 4 1 8 0;
#X connect 6 0 7 0;
#X connect 6 0 11 1;
#X connect 7 0 6 1;
#X connect 8 0 6 1;
#X connect 9 0 5 0;
#X connect 9 1 10 0;
#X connect 9 2 6 0;
#X connect 10 0 11 0;
#X connect 11 0 12 0;
#X connect 12 0 15 0;
#X connect 13 0 30 0;
#X connect 13 0 48 0;
#X connect 14 0 57 0;
#X connect 15 0 5 1;
#X connect 16 0 28 0;
#X connect 17 0 23 0;
#X connect 18 0 17 0;
#X connect 18 1 22 0;
#X connect 20 0 21 0;
#X connect 20 0 25 1;
#X connect 21 0 20 1;
#X connect 22 0 20 1;
#X connect 23 0 19 0;
#X connect 23 1 24 0;
#X connect 23 2 20 0;
#X connect 24 0 25 0;
#X connect 25 0 27 0;
#X connect 26 0 19 1;
#X connect 27 0 26 0;
#X connect 30 0 38 0;
#X connect 30 1 42 0;
#X connect 30 2 31 0;
#X connect 31 0 2 0;
#X connect 31 1 16 0;
#X connect 31 2 32 0;
#X connect 31 3 34 0;
#X connect 32 0 33 0;
#X connect 34 0 35 0;
#X connect 34 1 36 0;
#X connect 34 2 37 0;
#X connect 34 3 50 0;
#X connect 38 0 40 0;
#X connect 38 1 4 0;
#X connect 38 2 41 0;
#X connect 40 0 39 0;
#X connect 41 0 39 0;
#X connect 42 0 43 0;
#X connect 42 1 18 0;
#X connect 42 2 44 0;
#X connect 43 0 45 0;
#X connect 44 0 45 0;
#X connect 48 0 47 0;
#X connect 49 0 48 1;
#X connect 50 0 46 0;
#X connect 50 1 53 0;
#X connect 53 0 54 0;
#X connect 53 1 55 0;
#X connect 54 0 51 0;
#X connect 55 0 52 0;
#X connect 57 0 58 0;
#X connect 58 0 13 0;
#X restore 535 282 pd receiveOSC;
#X obj 322 59 bng 15 250 50 0 empty empty empty 17 7 0 10 -262144 -1
-1;
#X obj 34 72 bng 15 250 50 0 empty empty empty 17 7 0 10 -262144 -1
-1;
#X msg 501 239 /s/getParams;
#X obj 515 349 s \$0-cs_timeout-in;
#X msg 515 329 set \$1;
#X floatatom 515 312 5 0 0 0 - - -, f 5;
#X msg 501 219 /s;
#X obj 29 9 declare -path ../bin -path ../puremapping -path ../av;
#N canvas 640 235 450 300 sendOSC 0;
#X obj 108 228 s to-all-arduino;
#X obj 108 202 packOSCstream;
#X msg 127 96 [;
#X msg 88 96 ];
#X obj 88 72 t b a b;
#N canvas 1 129 450 481 prepend 0;
#X obj 176 73 inlet;
#X obj 176 197 makefilename;
#X obj 191 130 loadbang;
#X obj 176 93 list split 1;
#X obj 176 217 list append;
#X obj 176 257 outlet;
#X obj 176 237 list trim;
#X msg 191 177 set \$1%s;
#X obj 191 152 symbol \$1;
#X connect 0 0 3 0;
#X connect 1 0 4 0;
#X connect 2 0 8 0;
#X connect 3 0 1 0;
#X connect 3 1 4 1;
#X connect 4 0 6 0;
#X connect 6 0 5 0;
#X connect 7 0 1 0;
#X connect 8 0 7 0;
#X restore 108 138 pd prepend board id;
#X obj 257 176 spigot;
#X obj 257 198 print /b0\$1;
#X obj 290 155 tgl 15 0 empty empty monitor 17 7 0 10 -262144 -1 -1
0 1;
#X obj 88 52 inlet;
#X obj 290 133 inlet;
#X connect 1 0 0 0;
#X connect 2 0 1 0;
#X connect 3 0 1 0;
#X connect 4 0 3 0;
#X connect 4 1 5 0;
#X connect 4 2 2 0;
#X connect 5 0 1 0;
#X connect 5 0 6 0;
#X connect 6 0 7 0;
#X connect 8 0 6 1;
#X connect 9 0 4 0;
#X connect 10 0 8 0;
#X restore 195 373 pd sendOSC;
#X obj 252 355 tgl 15 0 empty empty monitor 17 7 0 10 -262144 -1 -1
0 1;
#X obj 195 312 t a;
#X obj 2 181 bng 15 250 50 0 empty \$0-load_in empty 17 7 0 10 -262144
-1 -1;
#X msg 259 145 /cs/sensibility;
#X msg 384 464 label \$1;
#X obj 384 442 symbol \$1;
#X obj 32 358 bng 15 250 50 0 reset_all_cs empty reset_all_cs 17 7
0 10 -262144 -1 -1;
#X connect 0 0 3 0;
#X connect 1 0 2 0;
#X connect 2 0 54 0;
#X connect 3 0 54 0;
#X connect 4 0 9 0;
#X connect 5 0 54 0;
#X connect 6 0 54 0;
#X connect 7 0 8 0;
#X connect 8 0 6 0;
#X connect 9 0 5 0;
#X connect 10 0 11 0;
#X connect 11 0 12 0;
#X connect 12 0 54 0;
#X connect 13 0 54 0;
#X connect 14 0 15 0;
#X connect 15 0 16 0;
#X connect 16 0 54 0;
#X connect 17 0 26 1;
#X connect 18 0 26 2;
#X connect 19 0 26 3;
#X connect 20 0 26 4;
#X connect 21 0 26 5;
#X connect 22 0 26 6;
#X connect 23 0 26 7;
#X connect 24 0 26 8;
#X connect 25 0 26 9;
#X connect 26 0 54 0;
#X connect 28 0 58 0;
#X connect 30 0 58 0;
#X connect 31 0 40 1;
#X connect 32 0 40 2;
#X connect 33 0 40 3;
#X connect 34 0 40 4;
#X connect 35 0 40 5;
#X connect 36 0 40 6;
#X connect 37 0 40 7;
#X connect 38 0 40 8;
#X connect 39 0 40 9;
#X connect 40 0 54 0;
#X connect 41 0 54 0;
#X connect 42 0 54 0;
#X connect 44 0 26 0;
#X connect 45 0 40 0;
#X connect 46 0 54 0;
#X connect 48 0 47 0;
#X connect 49 0 48 0;
#X connect 50 0 54 0;
#X connect 53 0 52 1;
#X connect 54 0 52 0;
#X connect 55 0 42 0;
#X connect 56 0 54 0;
#X connect 57 0 29 0;
#X connect 58 0 57 0;
