#N canvas 450 93 418 458 10;
#X declare -path ../bin;
#X obj 262 1 cnv 15 140 50 \$0-boardName_out \$0-boardName /b00 10
24 0 48 -233017 -66577 0;
#N canvas 228 207 1498 873 display_cs 1;
#X obj 205 -61 inlet;
#X floatatom 294 328 5 0 0 0 scale - -, f 5;
#X floatatom 326 354 5 0 0 0 offset - -, f 5;
#X floatatom 396 331 5 0 0 0 scale - -, f 5;
#X floatatom 428 357 5 0 0 0 offset - -, f 5;
#X floatatom 499 331 5 0 0 0 scale - -, f 5;
#X floatatom 531 357 5 0 0 0 offset - -, f 5;
#N canvas 1 116 450 300 beat-detect 0;
#X obj 143 87 t f f;
#X obj 145 117 -;
#X obj 145 137 max 0;
#X obj 145 176 max;
#X obj 184 177 f;
#X floatatom 145 198 5 0 0 0 - - -, f 5;
#X msg 188 135 0;
#X obj 188 114 bng 15 250 50 0 empty empty empty 17 7 0 10 -262144
-1 -1;
#X obj 143 64 inlet;
#X text 244 108 simple derivating;
#X text 132 220 threshold result to get beat attack;
#X connect 0 0 1 1;
#X connect 0 1 1 0;
#X connect 1 0 2 0;
#X connect 2 0 3 0;
#X connect 3 0 4 0;
#X connect 3 0 5 0;
#X connect 4 0 3 1;
#X connect 6 0 3 1;
#X connect 7 0 6 0;
#X connect 8 0 0 0;
#X restore 19 197 pd beat-detect;
#X floatatom 601 331 5 0 0 0 scale - -, f 5;
#X floatatom 633 357 5 0 0 0 offset - -, f 5;
#X floatatom 704 334 5 0 0 0 scale - -, f 5;
#X floatatom 736 360 5 0 0 0 offset - -, f 5;
#X floatatom 806 334 5 0 0 0 scale - -, f 5;
#X floatatom 838 360 5 0 0 0 offset - -, f 5;
#X obj 743 -3 nbx 5 14 -1e+37 1e+37 0 1 empty empty empty 0 -8 0 10
-262144 -1 -1 1000 256;
#X obj 300 -13 outlet;
#X obj 205 -13 routeOSC /cs;
#X floatatom 906 334 5 0 0 0 scale - -, f 5;
#X floatatom 938 360 5 0 0 0 offset - -, f 5;
#X floatatom 1036 334 5 0 0 0 scale - -, f 5;
#X floatatom 1068 360 5 0 0 0 offset - -, f 5;
#X floatatom 1166 334 5 0 0 0 scale - -, f 5;
#X floatatom 1198 360 5 0 0 0 offset - -, f 5;
#X obj 264 674 cnv 15 24 20 empty \$0-label_0 CS0 1 10 0 12 -166441
-1 0;
#X obj 304 674 cnv 15 24 20 empty \$0-label_1 CS1 1 10 0 12 -166441
-1 0;
#X obj 344 674 cnv 15 24 20 empty \$0-label_2 CS2 1 10 0 12 -166441
-1 0;
#X obj 384 674 cnv 15 24 20 empty \$0-label_3 CS3 1 10 0 12 -166441
-1 0;
#X obj 424 674 cnv 15 24 20 empty \$0-label_4 CS4 1 10 0 12 -166441
-1 0;
#X obj 464 674 cnv 15 24 20 empty \$0-label_5 CS5 1 10 0 12 -166441
-1 0;
#X obj 504 674 cnv 15 24 20 empty \$0-label_6 CS6 1 10 0 12 -166441
-1 0;
#X obj 544 674 cnv 15 24 20 empty \$0-label_7 CS7 1 10 0 12 -166441
-1 0;
#X obj 584 674 cnv 15 24 20 empty \$0-label_8 CS8 1 10 0 12 -24198
-1 0;
#X obj 1148 450 spigot;
#X obj 1181 414 r \$0-gui;
#X obj 458 14 tgl 15 0 \$0-gui empty gui 17 7 0 10 -262144 -1 -1 0
1;
#X obj 205 9 routeOSC /enable;
#X obj 885 -3 nbx 5 14 -1e+37 1e+37 0 1 empty empty empty 0 -8 0 10
-262144 -1 -1 23 256;
#X obj 1038 450 spigot;
#X obj 1071 414 r \$0-gui;
#X obj 928 450 spigot;
#X obj 961 414 r \$0-gui;
#X obj 818 450 spigot;
#X obj 851 414 r \$0-gui;
#X obj 708 450 spigot;
#X obj 741 414 r \$0-gui;
#X obj 598 450 spigot;
#X obj 631 414 r \$0-gui;
#X obj 488 450 spigot;
#X obj 521 414 r \$0-gui;
#X obj 378 450 spigot;
#X obj 411 414 r \$0-gui;
#X floatatom 268 514 5 0 0 0 - - -, f 5;
#X obj 268 538 vsl 20 128 0 1 0 0 empty empty empty 0 -9 0 10 -262144
-1 -1 0 1;
#X obj 268 450 spigot;
#X obj 301 414 r \$0-gui;
#X obj 1026 -3 nbx 5 14 -1e+37 1e+37 0 1 empty empty empty 0 -8 0 10
-262144 -1 -1 1 256;
#X obj 380 -53 nbx 5 14 -1e+37 1e+37 0 1 empty empty empty 0 -8 0 10
-262144 -1 -1 96 256;
#X obj 1205 2 nbx 5 14 -1e+37 1e+37 0 1 empty empty empty 0 -8 0 10
-262144 -1 -1 0.67 256;
#X obj 1026 16 / 1000;
#X obj 1241 248 loadbang;
#X msg 1241 270 1.5;
#X obj 205 96 unpack 0 0 0 0 0 0 0 0 0, f 160;
#X obj 192 269 pack 0 0 0 0 0 0 0 0 0, f 160;
#X obj 743 17 s \$1-cs_hp_filter_freq;
#X obj 885 16 s \$1-cs_lp_filter_freq;
#X msg 1209 106 reset;
#X obj 1026 51 s \$1-gain;
#X obj 938 -38 bng 15 250 50 0 empty empty empty 17 7 0 10 -262144
-1 -1;
#X obj 1079 311 tgl 15 0 empty empty empty 17 7 0 10 -262144 -1 -1
0 1;
#X obj 71 733 list trim;
#X obj 71 783 s sendOSC;
#X obj 1338 61 s \$1-cs_filter_reset;
#X obj 1338 41 bng 15 250 50 0 empty empty reset_filter 17 7 0 10 -262144
-1 -1;
#X obj 268 472 speedlimit 40;
#X floatatom 308 514 5 0 0 0 - - -, f 5;
#X obj 308 538 vsl 20 128 0 1 0 0 empty empty empty 0 -9 0 10 -262144
-1 -1 0 1;
#X obj 378 472 speedlimit 40;
#X floatatom 348 514 5 0 0 0 - - -, f 5;
#X obj 348 538 vsl 20 128 0 1 0 0 empty empty empty 0 -9 0 10 -262144
-1 -1 0 1;
#X obj 488 472 speedlimit 40;
#X floatatom 388 514 5 0 0 0 - - -, f 5;
#X obj 388 538 vsl 20 128 0 1 0 0 empty empty empty 0 -9 0 10 -262144
-1 -1 0 1;
#X obj 598 472 speedlimit 40;
#X floatatom 428 514 5 0 0 0 - - -, f 5;
#X obj 428 538 vsl 20 128 0 1 0 0 empty empty empty 0 -9 0 10 -262144
-1 -1 0 1;
#X obj 708 472 speedlimit 40;
#X floatatom 468 514 5 0 0 0 - - -, f 5;
#X obj 468 538 vsl 20 128 0 1 0 0 empty empty empty 0 -9 0 10 -262144
-1 -1 0 1;
#X obj 818 472 speedlimit 40;
#X floatatom 508 514 5 0 0 0 - - -, f 5;
#X obj 508 538 vsl 20 128 0 1 0 0 empty empty empty 0 -9 0 10 -262144
-1 -1 0 1;
#X obj 928 472 speedlimit 40;
#X floatatom 548 514 5 0 0 0 - - -, f 5;
#X obj 548 538 vsl 20 128 0 1.5 0 0 empty empty empty 0 -9 0 10 -262144
-1 -1 0 1;
#X obj 1038 472 speedlimit 40;
#X floatatom 588 514 5 0 0 0 - - -, f 5;
#X obj 588 538 vsl 20 128 0 8 0 0 empty empty empty 0 -9 0 10 -262144
-1 -1 2999 1;
#X obj 1148 472 speedlimit 40;
#X obj 1352 5 del 10000;
#X obj 298 32 routeOSC /*;
#X obj 71 755 route list;
#X obj 174 418 timer;
#X obj 187 362 t b b;
#X floatatom 174 440 5 0 0 0 - - -, f 5;
#X obj 187 829 print;
#X obj 196 781 spigot;
#X obj 235 754 tgl 15 0 empty empty empty 17 7 0 10 -262144 -1 -1 0
1;
#X obj 380 -34 s \$1-cs_notch_freq;
#X obj 1205 21 s \$1-cs_notch_width;
#X floatatom 269 159 5 0 0 0 - - -, f 5;
#X floatatom 387 156 5 0 0 0 - - -, f 5;
#X floatatom 514 157 5 0 0 0 - - -, f 5;
#X floatatom 619 158 5 0 0 0 - - -, f 5;
#X floatatom 748 159 5 0 0 0 - - -, f 5;
#X floatatom 865 157 5 0 0 0 - - -, f 5;
#X floatatom 982 156 5 0 0 0 - - -, f 5;
#X floatatom 1096 156 5 0 0 0 - - -, f 5;
#N canvas 1 113 361 352 update-gui 0;
#X obj 51 41 inlet;
#X obj 51 73 unpack 0 0 0 0 0 0 0 0 0, f 38;
#N canvas 1 85 450 300 setcolor 0;
#X obj 125 59 sel -2 -1;
#X obj 176 146 once 1;
#X obj 176 87 t b;
#X obj 150 112 t b;
#X obj 125 31 change;
#X obj 130 258 s \$0-label_0;
#X msg 51 213 color 13 22;
#X msg 130 213 color 1 22;
#X msg 204 213 color 16 22;
#X obj 125 6 inlet;
#X connect 0 0 3 0;
#X connect 0 0 6 0;
#X connect 0 1 3 0;
#X connect 0 1 7 0;
#X connect 0 2 2 0;
#X connect 1 0 8 0;
#X connect 2 0 1 0;
#X connect 3 0 1 1;
#X connect 4 0 0 0;
#X connect 6 0 5 0;
#X connect 7 0 5 0;
#X connect 8 0 5 0;
#X connect 9 0 4 0;
#X restore 51 267 pd setcolor;
#N canvas 1 90 450 300 setcolor 0;
#X obj 125 59 sel -2 -1;
#X obj 176 146 once 1;
#X obj 176 87 t b;
#X obj 150 112 t b;
#X obj 125 31 change;
#X msg 51 213 color 13 22;
#X msg 130 213 color 1 22;
#X msg 204 213 color 16 22;
#X obj 125 6 inlet;
#X obj 130 258 s \$0-label_1;
#X connect 0 0 3 0;
#X connect 0 0 5 0;
#X connect 0 1 3 0;
#X connect 0 1 6 0;
#X connect 0 2 2 0;
#X connect 1 0 7 0;
#X connect 2 0 1 0;
#X connect 3 0 1 1;
#X connect 4 0 0 0;
#X connect 5 0 9 0;
#X connect 6 0 9 0;
#X connect 7 0 9 0;
#X connect 8 0 4 0;
#X restore 81 247 pd setcolor;
#N canvas 1 90 450 300 setcolor 0;
#X obj 125 59 sel -2 -1;
#X obj 176 146 once 1;
#X obj 176 87 t b;
#X obj 150 112 t b;
#X obj 125 31 change;
#X msg 51 213 color 13 22;
#X msg 130 213 color 1 22;
#X msg 204 213 color 16 22;
#X obj 125 6 inlet;
#X obj 130 258 s \$0-label_2;
#X connect 0 0 3 0;
#X connect 0 0 5 0;
#X connect 0 1 3 0;
#X connect 0 1 6 0;
#X connect 0 2 2 0;
#X connect 1 0 7 0;
#X connect 2 0 1 0;
#X connect 3 0 1 1;
#X connect 4 0 0 0;
#X connect 5 0 9 0;
#X connect 6 0 9 0;
#X connect 7 0 9 0;
#X connect 8 0 4 0;
#X restore 111 227 pd setcolor;
#N canvas 1 90 450 300 setcolor 0;
#X obj 125 59 sel -2 -1;
#X obj 176 146 once 1;
#X obj 176 87 t b;
#X obj 150 112 t b;
#X obj 125 31 change;
#X msg 51 213 color 13 22;
#X msg 130 213 color 1 22;
#X msg 204 213 color 16 22;
#X obj 125 6 inlet;
#X obj 130 258 s \$0-label_3;
#X connect 0 0 3 0;
#X connect 0 0 5 0;
#X connect 0 1 3 0;
#X connect 0 1 6 0;
#X connect 0 2 2 0;
#X connect 1 0 7 0;
#X connect 2 0 1 0;
#X connect 3 0 1 1;
#X connect 4 0 0 0;
#X connect 5 0 9 0;
#X connect 6 0 9 0;
#X connect 7 0 9 0;
#X connect 8 0 4 0;
#X restore 131 207 pd setcolor;
#N canvas 1 95 450 300 setcolor 0;
#X obj 125 59 sel -2 -1;
#X obj 176 146 once 1;
#X obj 176 87 t b;
#X obj 150 112 t b;
#X obj 125 31 change;
#X msg 51 213 color 13 22;
#X msg 130 213 color 1 22;
#X msg 204 213 color 16 22;
#X obj 125 6 inlet;
#X obj 130 258 s \$0-label_4;
#X connect 0 0 3 0;
#X connect 0 0 5 0;
#X connect 0 1 3 0;
#X connect 0 1 6 0;
#X connect 0 2 2 0;
#X connect 1 0 7 0;
#X connect 2 0 1 0;
#X connect 3 0 1 1;
#X connect 4 0 0 0;
#X connect 5 0 9 0;
#X connect 6 0 9 0;
#X connect 7 0 9 0;
#X connect 8 0 4 0;
#X restore 161 187 pd setcolor;
#N canvas 1 95 450 300 setcolor 0;
#X obj 125 59 sel -2 -1;
#X obj 176 146 once 1;
#X obj 176 87 t b;
#X obj 150 112 t b;
#X obj 125 31 change;
#X msg 51 213 color 13 22;
#X msg 130 213 color 1 22;
#X msg 204 213 color 16 22;
#X obj 125 6 inlet;
#X obj 130 258 s \$0-label_5;
#X connect 0 0 3 0;
#X connect 0 0 5 0;
#X connect 0 1 3 0;
#X connect 0 1 6 0;
#X connect 0 2 2 0;
#X connect 1 0 7 0;
#X connect 2 0 1 0;
#X connect 3 0 1 1;
#X connect 4 0 0 0;
#X connect 5 0 9 0;
#X connect 6 0 9 0;
#X connect 7 0 9 0;
#X connect 8 0 4 0;
#X restore 191 167 pd setcolor;
#N canvas 1 95 450 300 setcolor 0;
#X obj 125 59 sel -2 -1;
#X obj 176 146 once 1;
#X obj 176 87 t b;
#X obj 150 112 t b;
#X obj 125 31 change;
#X msg 51 213 color 13 22;
#X msg 130 213 color 1 22;
#X msg 204 213 color 16 22;
#X obj 125 6 inlet;
#X obj 130 258 s \$0-label_6;
#X connect 0 0 3 0;
#X connect 0 0 5 0;
#X connect 0 1 3 0;
#X connect 0 1 6 0;
#X connect 0 2 2 0;
#X connect 1 0 7 0;
#X connect 2 0 1 0;
#X connect 3 0 1 1;
#X connect 4 0 0 0;
#X connect 5 0 9 0;
#X connect 6 0 9 0;
#X connect 7 0 9 0;
#X connect 8 0 4 0;
#X restore 211 147 pd setcolor;
#N canvas 1 95 450 300 setcolor 0;
#X obj 125 59 sel -2 -1;
#X obj 176 146 once 1;
#X obj 176 87 t b;
#X obj 150 112 t b;
#X obj 125 31 change;
#X msg 51 213 color 13 22;
#X msg 130 213 color 1 22;
#X msg 204 213 color 16 22;
#X obj 125 6 inlet;
#X obj 130 258 s \$0-label_7;
#X connect 0 0 3 0;
#X connect 0 0 5 0;
#X connect 0 1 3 0;
#X connect 0 1 6 0;
#X connect 0 2 2 0;
#X connect 1 0 7 0;
#X connect 2 0 1 0;
#X connect 3 0 1 1;
#X connect 4 0 0 0;
#X connect 5 0 9 0;
#X connect 6 0 9 0;
#X connect 7 0 9 0;
#X connect 8 0 4 0;
#X restore 241 127 pd setcolor;
#N canvas 1 90 450 300 setcolor 0;
#X obj 125 59 sel -2 -1;
#X obj 176 146 once 1;
#X obj 176 87 t b;
#X obj 150 112 t b;
#X obj 125 31 change;
#X msg 51 213 color 13 22;
#X msg 130 213 color 1 22;
#X msg 204 213 color 16 22;
#X obj 125 6 inlet;
#X obj 130 258 s \$0-label_8;
#X connect 0 0 3 0;
#X connect 0 0 5 0;
#X connect 0 1 3 0;
#X connect 0 1 6 0;
#X connect 0 2 2 0;
#X connect 1 0 7 0;
#X connect 2 0 1 0;
#X connect 3 0 1 1;
#X connect 4 0 0 0;
#X connect 5 0 9 0;
#X connect 6 0 9 0;
#X connect 7 0 9 0;
#X connect 8 0 4 0;
#X restore 271 107 pd setcolor;
#X connect 0 0 1 0;
#X connect 1 0 2 0;
#X connect 1 1 3 0;
#X connect 1 2 4 0;
#X connect 1 3 5 0;
#X connect 1 4 6 0;
#X connect 1 5 7 0;
#X connect 1 6 8 0;
#X connect 1 7 9 0;
#X connect 1 8 10 0;
#X restore 361 76 pd update-gui;
#X obj 361 54 spigot;
#X obj 394 32 r \$0-gui;
#X obj 1218 -44 r reset_all_cs;
#X obj 71 542 spigot 0;
#X obj 1218 -22 t b b;
#X obj 1147 -33 del 200;
#X obj 941 708 s \$1-taboffset;
#X obj 116 521 r \$1-out_spigot;
#X obj 1324 -47 r \$1-reset;
#X obj 1162 131 cs_filter \$1;
#X floatatom 1327 153 5 0 0 0 - - -, f 5;
#X obj 205 131 cs_filter \$1 0;
#X obj 325 131 cs_filter \$1 1;
#X obj 446 131 cs_filter \$1 2;
#X obj 563 131 cs_filter \$1 3;
#X obj 683 131 cs_filter \$1 4;
#X obj 803 131 cs_filter \$1 5;
#X obj 922 131 cs_filter \$1 6;
#X obj 1042 131 cs_filter \$1 7;
#X obj 71 713 list prepend /cs;
#X obj 194 807 t a b;
#X msg 253 805 0;
#X connect 0 0 16 0;
#X connect 14 0 63 0;
#X connect 16 0 35 0;
#X connect 16 1 15 0;
#X connect 32 0 97 0;
#X connect 33 0 32 1;
#X connect 35 1 99 0;
#X connect 36 0 64 0;
#X connect 37 0 94 0;
#X connect 38 0 37 1;
#X connect 39 0 91 0;
#X connect 40 0 39 1;
#X connect 41 0 88 0;
#X connect 42 0 41 1;
#X connect 43 0 85 0;
#X connect 44 0 43 1;
#X connect 45 0 82 0;
#X connect 46 0 45 1;
#X connect 47 0 79 0;
#X connect 48 0 47 1;
#X connect 49 0 76 0;
#X connect 50 0 49 1;
#X connect 51 0 52 0;
#X connect 53 0 73 0;
#X connect 54 0 53 1;
#X connect 55 0 58 0;
#X connect 56 0 107 0;
#X connect 57 0 108 0;
#X connect 58 0 66 0;
#X connect 59 0 60 0;
#X connect 60 0 22 0;
#X connect 61 0 7 0;
#X connect 61 0 129 0;
#X connect 61 1 130 0;
#X connect 61 2 131 0;
#X connect 61 3 132 0;
#X connect 61 4 133 0;
#X connect 61 5 134 0;
#X connect 61 6 135 0;
#X connect 61 7 136 0;
#X connect 61 8 127 0;
#X connect 61 8 128 0;
#X connect 62 0 102 0;
#X connect 65 0 127 0;
#X connect 67 0 36 0;
#X connect 67 0 14 0;
#X connect 67 0 55 0;
#X connect 67 0 56 0;
#X connect 67 0 57 0;
#X connect 67 0 98 0;
#X connect 69 0 100 0;
#X connect 72 0 71 0;
#X connect 73 0 51 0;
#X connect 74 0 75 0;
#X connect 76 0 74 0;
#X connect 77 0 78 0;
#X connect 79 0 77 0;
#X connect 80 0 81 0;
#X connect 82 0 80 0;
#X connect 83 0 84 0;
#X connect 85 0 83 0;
#X connect 86 0 87 0;
#X connect 88 0 86 0;
#X connect 89 0 90 0;
#X connect 91 0 89 0;
#X connect 92 0 93 0;
#X connect 94 0 92 0;
#X connect 95 0 96 0;
#X connect 97 0 95 0;
#X connect 98 0 72 0;
#X connect 99 1 61 0;
#X connect 99 1 118 0;
#X connect 100 1 70 0;
#X connect 100 1 105 0;
#X connect 101 0 103 0;
#X connect 102 0 101 0;
#X connect 102 1 101 1;
#X connect 105 0 138 0;
#X connect 106 0 105 1;
#X connect 118 0 117 0;
#X connect 119 0 118 1;
#X connect 120 0 122 0;
#X connect 121 0 137 0;
#X connect 122 0 123 0;
#X connect 122 1 72 0;
#X connect 125 0 121 1;
#X connect 126 0 122 0;
#X connect 127 0 32 0;
#X connect 127 0 62 8;
#X connect 127 0 121 0;
#X connect 129 0 53 0;
#X connect 129 0 62 0;
#X connect 129 1 109 0;
#X connect 130 0 49 0;
#X connect 130 0 62 1;
#X connect 130 1 110 0;
#X connect 131 0 47 0;
#X connect 131 0 62 2;
#X connect 131 1 111 0;
#X connect 132 0 45 0;
#X connect 132 0 62 3;
#X connect 132 1 112 0;
#X connect 133 0 43 0;
#X connect 133 0 62 4;
#X connect 133 1 113 0;
#X connect 134 0 41 0;
#X connect 134 0 62 5;
#X connect 134 1 114 0;
#X connect 135 0 39 0;
#X connect 135 0 62 6;
#X connect 135 1 115 0;
#X connect 136 0 62 7;
#X connect 136 0 37 0;
#X connect 136 1 116 0;
#X connect 137 0 69 0;
#X connect 138 0 104 0;
#X connect 138 1 139 0;
#X connect 139 0 106 0;
#X coords 0 -1 1 1 380 187 2 250 510;
#X restore 3 49 pd display_cs;
#X obj 3 349 outlet;
#N canvas 361 384 894 443 receiveOSC 0;
#X obj 228 5 loadbang;
#X obj 228 27 symbol \$1;
#X msg 228 49 set \$1;
#X obj 141 27 r OSCdispatch;
#X obj 141 161 tgl 15 0 \$0-display_cs empty display_cs 17 7 0 10 -262144
-1 -1 0 1;
#X obj 141 140 routeOSC /open;
#X obj 141 77 routeOSC /*;
#X obj 222 167 outlet;
#N canvas 1 112 450 456 stream_check 0;
#X obj 201 107 tgl 15 0 empty empty empty 17 7 0 10 -262144 -1 -1 1
1;
#X obj 201 87 stream_check 100;
#X obj 201 155 sel 1, f 19;
#X obj 228 227 s \$1-reset;
#X obj 174 43 inlet;
#X obj 174 65 t a a;
#X obj 174 298 outlet;
#X obj 201 177 del 10000;
#X obj 201 199 t b b;
#X msg 201 257 1;
#X obj 312 331 s \$1-out_spigot;
#X connect 0 0 2 0;
#X connect 1 0 0 0;
#X connect 2 0 7 0;
#X connect 2 1 10 0;
#X connect 4 0 5 0;
#X connect 5 0 6 0;
#X connect 5 1 1 0;
#X connect 7 0 8 0;
#X connect 8 0 9 0;
#X connect 8 1 3 0;
#X connect 9 0 10 0;
#X restore 141 112 pd stream_check;
#X connect 0 0 1 0;
#X connect 1 0 2 0;
#X connect 2 0 6 0;
#X connect 3 0 6 0;
#X connect 5 0 4 0;
#X connect 5 1 7 0;
#X connect 6 0 8 0;
#X connect 8 0 5 0;
#X restore 3 26 pd receiveOSC;
#X obj 3 6 tgl 15 0 empty empty monitor 17 7 0 10 -262144 -1 -1 0 1
;
#N canvas 1037 314 406 370 gui 0;
#X obj 20 5 loadbang;
#X obj 20 47 symbol \$1;
#X msg 20 69 label \$1;
#X obj 20 91 s \$0-boardName;
#X obj 76 5 bng 15 250 50 0 empty empty empty 17 7 0 10 -262144 -1
-1;
#X obj 137 92 list fromsymbol;
#X msg 137 114 \$4;
#X obj 271 229 hcs/window_name 1;
#X obj 220 251 pack s s, f 9;
#X obj 20 27 t b b;
#X obj 137 136 - 48;
#X obj 137 158 t f f;
#X obj 164 178 div 3;
#X obj 124 178 mod 3;
#X msg 220 273 wm geometry \$2 \$1;
#X obj 220 293 hcs/sys_gui;
#X obj 276 192 bng 15 250 50 0 empty empty empty 17 7 0 10 -262144
-1 -1;
#X msg 114 311 +\$1+\$2;
#X obj 114 333 symbol;
#X obj 113 290 pack;
#X floatatom 131 267 5 0 0 0 - - -, f 5;
#X floatatom 87 269 5 0 0 0 - - -, f 5;
#X obj 153 294 t b f;
#X obj 333 174 s board-\$1;
#X msg 333 152 vis 1;
#X obj 288 86 tgl 15 0 empty empty empty 17 7 0 10 -262144 -1 -1 1
1;
#X obj 288 106 s \$0-gui;
#X msg 288 65 1;
#X obj 145 233 * 550;
#X obj 124 200 + 1;
#X obj 101 228 * 450;
#X obj 96 5 r board_ontop;
#X connect 0 0 9 0;
#X connect 1 0 2 0;
#X connect 1 0 5 0;
#X connect 2 0 3 0;
#X connect 4 0 1 0;
#X connect 5 0 6 0;
#X connect 6 0 10 0;
#X connect 7 0 8 1;
#X connect 8 0 14 0;
#X connect 9 0 1 0;
#X connect 9 1 7 0;
#X connect 9 1 24 0;
#X connect 9 1 27 0;
#X connect 10 0 11 0;
#X connect 11 0 13 0;
#X connect 11 1 12 0;
#X connect 12 0 28 0;
#X connect 13 0 29 0;
#X connect 14 0 15 0;
#X connect 16 0 7 0;
#X connect 17 0 18 0;
#X connect 18 0 8 0;
#X connect 19 0 17 0;
#X connect 20 0 22 0;
#X connect 21 0 19 0;
#X connect 22 0 19 0;
#X connect 22 1 19 1;
#X connect 24 0 23 0;
#X connect 25 0 26 0;
#X connect 27 0 25 0;
#X connect 28 0 19 1;
#X connect 29 0 30 0;
#X connect 30 0 19 0;
#X connect 31 0 9 0;
#X restore 96 3 pd gui;
#X obj 96 22 declare -path ../bin;
#X obj 139 3 namecanvas board-\$1;
#X obj 3 281 routeOSC /s/t;
#X obj 78 301 print other_messages_\$1;
#X obj 3 302 iir 5;
#X floatatom 39 300 5 0 0 0 - - -, f 5;
#X obj 3 326 speedlimit 40;
#X connect 1 0 8 0;
#X connect 3 0 1 0;
#X connect 8 0 10 0;
#X connect 8 1 9 0;
#X connect 10 0 12 0;
#X connect 11 0 10 1;
#X connect 12 0 2 0;
