#N canvas 731 314 669 507 10;
#X declare -path ../bin;
#X obj 10 19 declare -path ../bin;
#X obj 273 353 print status\$1;
#X obj 174 372 outlet;
#X obj 174 133 spigot;
#X obj 273 333 spigot;
#X obj 306 313 tgl 15 0 empty empty monitor_status 17 7 0 10 -262144
-1 -1 0 1;
#X obj 310 251 tgl 15 0 empty empty connection_status 17 7 0 10 -262144
-1 -1 0 1;
#X obj 295 13 r to-arduino-\$1;
#X obj 174 13 r to-arduino-ctl-\$1;
#X obj 306 287 inlet;
#X obj 54 343 spigot 1;
#X obj 54 365 t a b;
#X obj 54 409 list prepend set;
#X obj 54 431 list trim;
#X msg 100 369 0;
#X msg 99 278 1;
#X obj 54 387 list split 1;
#X obj 45 474 print receive_from:\$1;
#X msg 74 88 0 \$1;
#X floatatom 74 64 5 0 0 0 - - -, f 5;
#X obj 174 97 spigot 1;
#X obj 174 231 unpackOSCstream;
#X obj 201 276 routeOSC /dmx;
#X obj 272 44 t b;
#X msg 255 76 0;
#X msg 350 68 1;
#X obj 305 108 spigot 0;
#X obj 305 43 r to-arduino-dmx;
#X obj 219 77 tgl 15 0 empty empty empty 17 7 0 10 -262144 -1 -1 0
1;
#X obj 350 89 tgl 15 0 empty empty empty 17 7 0 10 -262144 -1 -1 0
1;
#X obj 174 253 t a a;
#X obj 184 350 spigot;
#X msg 201 298 0;
#X msg 229 298 1;
#X obj 184 392 s OSCdmx;
#X obj 174 330 spigot 1;
#X obj 433 40 route ports;
#X obj 433 61 route \$1;
#X obj 310 229 route open float;
#X msg 433 101 devicename \$1;
#X obj 174 171 comport -1 115200;
#X obj 433 19 inlet;
#X obj 538 239 tgl 15 0 empty empty empty 17 7 0 10 -262144 -1 -1 1
1;
#X obj 538 160 loadbang;
#X obj 433 81 symbol;
#X obj 433 123 t a;
#X msg 291 132 info;
#X obj 550 189 bng 15 250 50 0 empty empty empty 17 7 0 10 -262144
-1 -1;
#X obj 538 218 stream_check 2000;
#X msg 54 452 /b00/cs;
#X connect 3 0 40 0;
#X connect 4 0 1 0;
#X connect 5 0 4 1;
#X connect 7 0 20 0;
#X connect 8 0 20 0;
#X connect 9 0 5 0;
#X connect 10 0 11 0;
#X connect 11 0 16 0;
#X connect 11 1 14 0;
#X connect 12 0 13 0;
#X connect 13 0 49 0;
#X connect 14 0 10 1;
#X connect 15 0 10 1;
#X connect 16 0 12 0;
#X connect 16 0 17 0;
#X connect 18 0 40 0;
#X connect 19 0 18 0;
#X connect 20 0 3 0;
#X connect 21 0 10 0;
#X connect 21 0 30 0;
#X connect 22 0 23 0;
#X connect 22 0 32 0;
#X connect 22 0 33 0;
#X connect 23 0 24 0;
#X connect 23 0 25 0;
#X connect 24 0 28 0;
#X connect 25 0 29 0;
#X connect 26 0 3 0;
#X connect 27 0 26 0;
#X connect 28 0 20 1;
#X connect 29 0 26 1;
#X connect 30 0 31 0;
#X connect 30 0 35 0;
#X connect 30 1 22 0;
#X connect 31 0 34 0;
#X connect 32 0 35 1;
#X connect 33 0 31 1;
#X connect 35 0 2 0;
#X connect 36 0 37 0;
#X connect 36 1 45 0;
#X connect 37 0 44 0;
#X connect 38 0 6 0;
#X connect 39 0 45 0;
#X connect 40 0 21 0;
#X connect 40 0 48 0;
#X connect 40 1 4 0;
#X connect 40 1 38 0;
#X connect 41 0 36 0;
#X connect 42 0 3 1;
#X connect 43 0 48 0;
#X connect 44 0 39 0;
#X connect 45 0 40 0;
#X connect 46 0 40 0;
#X connect 47 0 48 0;
#X connect 48 0 42 0;
