#N canvas 716 379 669 507 10;
#X declare -path ../bin;
#X obj 10 19 declare -path ../bin;
#X obj 273 353 print status\$1;
#X obj 174 372 outlet;
#X obj 174 133 spigot;
#X obj 273 333 spigot;
#X obj 306 313 tgl 15 0 empty empty monitor_status 17 7 0 10 -262144
-1 -1 0 1;
#X obj 310 251 tgl 15 0 empty empty connection_status 17 7 0 10 -262144
-1 -1 0 1;
#X obj 186 33 r to-arduino-\$1;
#X obj 174 13 r to-arduino-ctl-\$1;
#X obj 306 287 inlet;
#X obj 54 343 spigot 1;
#X obj 54 365 t a b;
#X obj 54 409 list prepend set;
#X obj 54 431 list trim;
#X msg 100 369 0;
#X msg 99 278 1;
#X obj 54 387 list split 1;
#X obj 45 474 print receive_from:\$1;
#X msg 74 88 0 \$1;
#X floatatom 74 64 5 0 0 0 - - -, f 5;
#X obj 310 229 route open float;
#X obj 538 239 tgl 15 0 empty empty empty 17 7 0 10 -262144 -1 -1 1
1;
#X obj 538 160 loadbang;
#X obj 550 189 bng 15 250 50 0 empty empty empty 17 7 0 10 -262144
-1 -1;
#X obj 538 218 stream_check 2000;
#X msg 54 452 b00;
#N canvas 0 93 450 300 savepayload 0;
#X obj 170 70 slipdec 65536;
#X obj 170 38 inlet;
#X obj 197 235 textfile;
#X msg 216 129 clear;
#X obj 170 92 t b a b;
#X obj 193 155 list prepend add;
#X obj 193 177 list trim;
#X msg 47 156 write last-frame.log;
#X connect 0 0 4 0;
#X connect 1 0 0 0;
#X connect 3 0 2 0;
#X connect 4 0 7 0;
#X connect 4 1 5 0;
#X connect 4 2 3 0;
#X connect 5 0 6 0;
#X connect 6 0 2 0;
#X connect 7 0 2 0;
#X restore 443 442 pd savepayload;
#X obj 174 199 t a a;
#X obj 174 231 _unpackOSCstream;
#X obj 174 171 comport 0 115200;
#X connect 3 0 29 0;
#X connect 4 0 1 0;
#X connect 5 0 4 1;
#X connect 7 0 3 0;
#X connect 8 0 3 0;
#X connect 9 0 5 0;
#X connect 10 0 11 0;
#X connect 11 0 16 0;
#X connect 11 1 14 0;
#X connect 12 0 13 0;
#X connect 13 0 25 0;
#X connect 14 0 10 1;
#X connect 15 0 10 1;
#X connect 16 0 12 0;
#X connect 16 0 17 0;
#X connect 18 0 29 0;
#X connect 19 0 18 0;
#X connect 20 0 6 0;
#X connect 21 0 3 1;
#X connect 22 0 24 0;
#X connect 23 0 24 0;
#X connect 24 0 21 0;
#X connect 27 0 28 0;
#X connect 28 0 10 0;
#X connect 28 0 2 0;
#X connect 29 0 24 0;
#X connect 29 0 27 0;
#X connect 29 1 4 0;
#X connect 29 1 20 0;
