#N canvas 835 99 996 981 10;
#X declare -path ../pd-externals/puremapping -path ../av;
#X declare -path ../pd-externals/nusmuk-audio;
#X obj 143 732 * 1;
#X obj 56 4 inlet;
#X obj 143 919 outlet;
#X obj 83 200 route reset;
#N canvas 1 109 450 300 reset 0;
#X obj 180 147 t f f;
#X msg 207 187 reset \$1;
#X obj 180 127 inlet;
#X obj 128 97 inlet;
#X obj 180 228 outlet;
#X obj 207 167 once 1;
#X connect 0 0 4 0;
#X connect 0 1 5 0;
#X connect 1 0 4 0;
#X connect 2 0 0 0;
#X connect 3 0 5 1;
#X connect 5 0 1 0;
#X restore 143 448 pd reset;
#X obj 239 468 r \$1-cs_lp_filter_freq;
#X floatatom 251 490 5 0 0 0 - - -, f 5;
#X obj 158 711 r \$1-gain;
#X obj 175 107 r \$1-cs_filter_reset;
#X msg 175 130 reset;
#X text 202 33 high and low pass filter for CS;
#X obj 56 146 moses;
#X obj 224 410 -;
#X obj 224 240 t f f;
#X obj 182 780 sqrt;
#N canvas 1 147 450 300 reset 0;
#X obj 156 128 t f f;
#X obj 156 108 inlet;
#X obj 104 78 inlet;
#X obj 156 209 outlet;
#X msg 183 168 set \$1;
#X obj 183 148 once 1;
#X connect 0 0 3 0;
#X connect 0 1 5 0;
#X connect 1 0 0 0;
#X connect 2 0 5 1;
#X connect 4 0 3 0;
#X connect 5 0 4 0;
#X restore 206 320 pd reset;
#X floatatom 356 333 5 0 0 0 - - -, f 5;
#X obj 251 280 iir 5;
#X obj 143 754 moses 1;
#X text 801 346 baseline;
#X obj 759 374 timeroll 100 baseline;
#X obj 550 375 timeroll 100 raw_baseline;
#X obj 761 688 timeroll 100 after_waveshaping;
#X obj 552 690 timeroll 100 after_2pass_lp;
#X obj 554 91 / 200;
#X obj 550 347 / 200;
#X obj 759 346 / 200;
#X obj 554 71 spigot;
#X obj 587 51 r \$0-display_data;
#X obj 550 327 spigot;
#X obj 583 307 r \$0-display_data;
#X obj 759 327 spigot;
#X obj 792 307 r \$0-display_data;
#X obj 552 648 spigot;
#X obj 585 628 r \$0-display_data;
#X obj 761 668 spigot;
#X obj 794 648 r \$0-display_data;
#X obj 320 167 tgl 15 0 \$0-display_data empty display_data 17 7 0
10 -262144 -1 -1 0 1;
#X floatatom 803 328 5 0 0 0 - - -, f 5;
#X floatatom 342 59 5 0 0 0 - - -, f 5;
#X obj 351 95 t f;
#X floatatom 710 653 5 0 0 0 - - -, f 5;
#X obj 143 489 iir 5;
#X obj 338 687 timeroll 100 after_2pass_lp;
#X obj 338 645 spigot;
#X obj 371 625 r \$0-display_data;
#X obj 143 529 iir 5;
#X text 286 373 baseline computation and soustraction;
#X text 207 516 2nd order low pass filter;
#X obj 56 167 t f;
#X obj 209 917 outlet;
#X obj 554 149 timeroll 100 raw_data_from_sensor;
#X obj 476 17 declare -path ../pd-externals/puremapping -path ../av
;
#X obj 733 43 declare -path ../pd-externals/nusmuk-audio;
#X obj 56 53 _resample-sync master_clock 10;
#X msg 296 667 /b01;
#X obj 83 223 t b a;
#X floatatom 183 587 5 0 0 0 - - -, f 5;
#X obj 552 668 / 500;
#X obj 338 665 / 5000;
#X floatatom 103 861 5 0 0 0 - - -, f 5;
#X obj 143 817 t f;
#X obj 143 891 abs;
#X floatatom 318 190 5 0 0 0 - - -, f 5;
#X text 360 189 gain;
#X obj 251 355 speedlimiter 5e-05;
#X obj 204 174 print cs;
#X connect 0 0 18 0;
#X connect 1 0 54 0;
#X connect 3 0 56 0;
#X connect 3 1 13 0;
#X connect 4 0 42 0;
#X connect 5 0 6 0;
#X connect 5 0 42 1;
#X connect 5 0 46 1;
#X connect 7 0 0 1;
#X connect 8 0 9 0;
#X connect 9 0 3 0;
#X connect 9 0 66 0;
#X connect 11 0 49 0;
#X connect 11 1 3 0;
#X connect 13 0 12 0;
#X connect 13 0 4 1;
#X connect 13 1 17 0;
#X connect 14 0 61 0;
#X connect 15 0 65 0;
#X connect 16 0 65 1;
#X connect 17 0 15 1;
#X connect 17 0 29 0;
#X connect 18 0 61 0;
#X connect 18 1 14 0;
#X connect 24 0 51 0;
#X connect 25 0 21 0;
#X connect 26 0 20 0;
#X connect 27 0 24 0;
#X connect 28 0 27 1;
#X connect 29 0 25 0;
#X connect 30 0 29 1;
#X connect 31 0 26 0;
#X connect 31 0 38 0;
#X connect 32 0 31 1;
#X connect 33 0 58 0;
#X connect 34 0 33 1;
#X connect 35 0 22 0;
#X connect 36 0 35 1;
#X connect 39 0 40 0;
#X connect 40 0 27 0;
#X connect 41 0 23 1;
#X connect 42 0 44 0;
#X connect 42 0 46 0;
#X connect 42 0 57 0;
#X connect 44 0 59 0;
#X connect 45 0 44 1;
#X connect 46 0 33 0;
#X connect 46 0 0 0;
#X connect 49 0 50 0;
#X connect 49 0 3 0;
#X connect 54 0 11 0;
#X connect 54 0 40 0;
#X connect 56 1 15 0;
#X connect 56 1 4 0;
#X connect 58 0 23 0;
#X connect 59 0 43 0;
#X connect 61 0 35 0;
#X connect 61 0 60 0;
#X connect 61 0 62 0;
#X connect 62 0 2 0;
#X connect 63 0 59 1;
#X connect 63 0 58 1;
#X connect 63 0 25 1;
#X connect 63 0 26 1;
#X connect 65 0 12 1;
#X connect 65 0 31 0;
