#N canvas 44 422 624 500 10;
#X declare -path ../puremapping;
#X obj 166 39 inlet, f 6;
#X obj 211 393 outlet;
#X obj 211 151 / 1023;
#X obj 166 285 iir 1000;
#X obj 280 250 declare -path ../puremapping;
#X obj 211 214 r \$1-fsr_hp_filter_freq;
#X floatatom 353 341 5 0 0 0 - - -, f 5;
#X obj 166 130 route reset;
#N canvas 110 193 450 300 reset 0;
#X obj 159 -145 t f f;
#X msg 186 -105 reset \$1;
#X obj 159 -165 inlet;
#X obj 107 -195 inlet;
#X obj 159 -64 outlet;
#X obj 186 -125 once 1;
#X connect 0 0 4 0;
#X connect 0 1 5 0;
#X connect 1 0 4 0;
#X connect 2 0 0 0;
#X connect 3 0 5 1;
#X connect 5 0 1 0;
#X restore 166 172 pd reset;
#X msg 296 65 reset;
#N canvas 1 96 450 300 offset 0;
#X obj 150 77 symbol \$1;
#X obj 150 30 loadbang;
#X obj 150 52 bng 15 250 50 0 empty empty empty 17 7 0 10 -262144 -1
-1;
#X obj 150 99 list fromsymbol;
#X msg 150 121 \$4;
#X obj 150 142 - 48;
#X obj 150 164 max 0;
#X obj 150 187 * 9;
#X obj 150 208 + \$2;
#X obj 150 230 outlet;
#X connect 0 0 3 0;
#X connect 1 0 2 0;
#X connect 2 0 0 0;
#X connect 3 0 4 0;
#X connect 4 0 5 0;
#X connect 5 0 6 0;
#X connect 6 0 7 0;
#X connect 7 0 8 0;
#X connect 8 0 9 0;
#X restore 351 449 pd offset;
#X obj 211 343 t f f;
#X obj 288 470 tabwrite FSR;
#X obj 166 99 _resample-sync master_clock 11;
#X obj 269 44 t b b;
#X obj 288 398 spigot;
#X obj 269 22 r \$1-fsr_filter_reset;
#X obj 321 371 r \$1-out_spigot;
#N canvas 1 128 450 300 filter 0;
#X obj 124 147 iir 15;
#X obj 157 167 abs;
#X obj 157 188 outlet;
#X obj 124 126 inlet;
#X obj 171 126 inlet;
#X connect 0 1 1 0;
#X connect 1 0 2 0;
#X connect 3 0 0 0;
#X connect 4 0 0 1;
#X restore 443 455 pd filter;
#N canvas 1 96 450 300 offset 0;
#X obj 150 77 symbol \$1;
#X obj 150 30 loadbang;
#X obj 150 52 bng 15 250 50 0 empty empty empty 17 7 0 10 -262144 -1
-1;
#X obj 150 99 list fromsymbol;
#X msg 150 121 \$4;
#X obj 150 142 - 48;
#X obj 150 164 max 0;
#X obj 150 187 * 9;
#X obj 150 208 + \$2;
#X obj 150 230 outlet;
#X connect 0 0 3 0;
#X connect 1 0 2 0;
#X connect 2 0 0 0;
#X connect 3 0 4 0;
#X connect 4 0 5 0;
#X connect 5 0 6 0;
#X connect 6 0 7 0;
#X connect 7 0 8 0;
#X connect 8 0 9 0;
#X restore 530 454 pd offset;
#X obj 288 420 t f f;
#X obj 443 478 tabwrite FSR-hip;
#X obj 494 417 r FSR-hip-coeff;
#X connect 0 0 13 0;
#X connect 2 0 8 1;
#X connect 3 1 11 0;
#X connect 5 0 6 0;
#X connect 5 0 3 1;
#X connect 7 0 8 0;
#X connect 7 1 2 0;
#X connect 8 0 3 0;
#X connect 9 0 7 0;
#X connect 10 0 12 1;
#X connect 11 0 1 0;
#X connect 11 1 15 0;
#X connect 13 0 7 0;
#X connect 14 1 9 0;
#X connect 15 0 20 0;
#X connect 16 0 14 0;
#X connect 17 0 15 1;
#X connect 18 0 21 0;
#X connect 19 0 21 1;
#X connect 20 0 12 0;
#X connect 20 1 18 0;
#X connect 22 0 18 1;
