#N canvas 1 96 780 723 10;
#X floatatom 23 15 5 0 0 0 - - -, f 5;
#N canvas 50 82 450 300 master_1et2 0;
#X obj 79 22 inlet;
#X obj 79 54 bus lumiere1;
#X obj 109 89 bus lumiere2;
#X connect 0 0 1 0;
#X connect 0 0 2 0;
#X restore 25 79 pd master_1et2;
#X floatatom 25 60 5 0 0 0 - - -, f 5;
#X text 73 17 de 0 a 100;
#X text 70 59 de 0 a 100;
#X msg 25 103 mem-1;
#X obj 25 126 s goto_mem_light;
#X msg 25 152 0 1000;
#X text 90 152 impose une valeur pendant un certain temps a un circuit
;
#X msg 25 199 0 1000;
#X text 86 200 ou sur tous;
#X obj 27 396 s circuit-3;
#X msg 46 331 50 1000;
#X msg 61 353 50 1000 2000;
#X msg 27 289 0;
#X msg 35 311 100;
#X text 65 292 jump;
#X text 124 333 ramp;
#X text 165 354 ramp up \, ramp down;
#X msg 70 375 50 1000 2000 1 0 1 1;
#X text 226 377 + curve up \, down \, smooth up \, down;
#X msg 45 464 50 1000;
#X msg 60 486 50 1000 2000;
#X msg 26 422 0;
#X msg 34 444 100;
#X text 64 425 jump;
#X text 123 466 ramp;
#X text 164 487 ramp up \, ramp down;
#X msg 69 508 50 1000 2000 1 0 1 1;
#X text 225 510 + curve up \, down \, smooth up \, down;
#X obj 26 529 s effet-3;
#X msg 51 595 50 1000;
#X msg 66 617 50 1000 2000;
#X msg 32 553 0;
#X msg 40 575 100;
#X text 70 556 jump;
#X text 129 597 ramp;
#X text 170 618 ramp up \, ramp down;
#X msg 75 639 50 1000 2000 1 0 1 1;
#X text 231 641 + curve up \, down \, smooth up \, down;
#X obj 32 660 s paramettre-3;
#X text 192 255 <- effets;
#X floatatom 474 33 5 0 0 0 - - -, f 5;
#X text 492 70 ajoute a la valeur actuel;
#X floatatom 476 89 5 0 0 0 - - -, f 5;
#X text 493 126 multiplie a la valeur actuel;
#X obj 25 175 s set_lumiere9;
#X obj 25 222 s set_lumiere;
#X floatatom 485 142 5 0 0 0 - - -, f 5;
#X text 503 179 ajoute a la valeur actuel;
#X floatatom 487 198 5 0 0 0 - - -, f 5;
#X text 504 235 multiplie a la valeur actuel;
#X msg 93 104 rien 1000 2000;
#X msg 223 103 rien;
#X msg 282 99 rien 3000;
#X obj 485 160 s add;
#X obj 488 216 s mul;
#X floatatom 606 486 5 0 0 0 - - -, f 5;
#X floatatom 529 537 5 0 0 0 - - -, f 5;
#X floatatom 528 624 5 0 0 0 - - -, f 5;
#X floatatom 606 538 5 0 0 0 - - -, f 5;
#X obj 130 258 effet3;
#X obj 75 258 effet2;
#X floatatom 514 353 5 0 0 0 - - -, f 5;
#X floatatom 520 484 5 0 0 0 - - -, f 5;
#X obj 514 376 bus led1;
#X obj 23 33 bus lumiere1;
#X obj 474 51 bus add1;
#X obj 529 557 bus test;
#X obj 477 107 bus mul1;
#X obj 606 556 bus test2 2;
#X floatatom 608 624 5 0 0 0 - - -, f 5;
#X obj 23 258 effet1;
#X text 530 659 syncro on dmx univers 1 or 2;
#X obj 517 466 get_bus effet1;
#X obj 604 467 get_bus data1;
#X obj 528 601 get_bus test;
#X obj 608 601 get_bus test2 2;
#X connect 0 0 66 0;
#X connect 2 0 1 0;
#X connect 5 0 6 0;
#X connect 7 0 46 0;
#X connect 9 0 47 0;
#X connect 12 0 11 0;
#X connect 13 0 11 0;
#X connect 14 0 11 0;
#X connect 15 0 11 0;
#X connect 19 0 11 0;
#X connect 21 0 30 0;
#X connect 22 0 30 0;
#X connect 23 0 30 0;
#X connect 24 0 30 0;
#X connect 28 0 30 0;
#X connect 31 0 40 0;
#X connect 32 0 40 0;
#X connect 33 0 40 0;
#X connect 34 0 40 0;
#X connect 38 0 40 0;
#X connect 42 0 67 0;
#X connect 44 0 69 0;
#X connect 48 0 55 0;
#X connect 50 0 56 0;
#X connect 52 0 6 0;
#X connect 53 0 6 0;
#X connect 54 0 6 0;
#X connect 58 0 68 0;
#X connect 60 0 70 0;
#X connect 63 0 65 0;
#X connect 74 0 64 0;
#X connect 75 0 57 0;
#X connect 76 0 59 0;
#X connect 77 0 71 0;
