#N canvas 209 327 349 435 10;
#X obj 59 103 i;
#X obj 59 152 max 0;
#X obj 59 195 change;
#X obj 59 8 inlet;
#X obj 59 247 spigot 1;
#X obj 112 223 r master_light;
#N canvas 1 96 456 374 curve 0;
#X obj 69 45 inlet;
#X obj 69 296 outlet;
#X obj 69 252 pow 1;
#X obj 308 110 t f b;
#X msg 340 133 2;
#X obj 340 154 log;
#X obj 322 178 *;
#X obj 322 202 exp;
#X obj 308 60 loadbang;
#X obj 308 87 \$1;
#X connect 0 0 2 0;
#X connect 2 0 1 0;
#X connect 3 0 6 0;
#X connect 3 1 4 0;
#X connect 4 0 5 0;
#X connect 5 0 6 1;
#X connect 6 0 7 0;
#X connect 7 0 2 1;
#X connect 8 0 9 0;
#X connect 9 0 3 0;
#X restore 59 54 pd curve;
#X obj 59 81 * 255;
#X obj 59 273 spigot 1;
#X obj 123 248 > 0;
#X obj 59 29 / 100;
#X obj 292 6 inlet;
#X obj 59 128 min 255;
#X obj 59 173 t f f;
#X obj 131 198 f;
#X obj 131 88 r init_all_dmx;
#X obj 131 113 random 1000;
#X obj 131 135 delay;
#X obj 59 345 pack;
#X msg 59 367 \$2 \$1;
#X obj 59 389 s to-arduino-dmx;
#X obj 292 166 t f;
#X obj 292 218 - 1;
#X floatatom 185 187 5 0 0 0 - - -, f 5;
#X connect 0 0 12 0;
#X connect 1 0 13 0;
#X connect 2 0 4 0;
#X connect 3 0 10 0;
#X connect 4 0 8 0;
#X connect 5 0 4 1;
#X connect 6 0 7 0;
#X connect 7 0 0 0;
#X connect 8 0 18 0;
#X connect 9 0 8 1;
#X connect 10 0 6 0;
#X connect 11 0 21 0;
#X connect 12 0 1 0;
#X connect 13 0 2 0;
#X connect 13 1 14 1;
#X connect 14 0 8 0;
#X connect 15 0 16 0;
#X connect 16 0 17 0;
#X connect 17 0 14 0;
#X connect 18 0 19 0;
#X connect 19 0 20 0;
#X connect 21 0 9 0;
#X connect 21 0 22 0;
#X connect 22 0 18 1;
