{
	"patcher" : 	{
		"fileversion" : 1,
		"appversion" : 		{
			"major" : 7,
			"minor" : 2,
			"revision" : 3,
			"architecture" : "x86",
			"modernui" : 1
		}
,
		"rect" : [ 976.0, 86.0, 280.0, 198.0 ],
		"bgcolor" : [ 0.239216, 0.254902, 0.278431, 1.0 ],
		"editing_bgcolor" : [ 0.65098, 0.666667, 0.662745, 1.0 ],
		"bglocked" : 0,
		"openinpresentation" : 1,
		"default_fontsize" : 12.0,
		"default_fontface" : 0,
		"default_fontname" : "Arial",
		"gridonopen" : 1,
		"gridsize" : [ 15.0, 15.0 ],
		"gridsnaponopen" : 1,
		"objectsnaponopen" : 1,
		"statusbarvisible" : 2,
		"toolbarvisible" : 0,
		"lefttoolbarpinned" : 0,
		"toptoolbarpinned" : 0,
		"righttoolbarpinned" : 0,
		"bottomtoolbarpinned" : 0,
		"toolbars_unpinned_last_save" : 0,
		"tallnewobj" : 0,
		"boxanimatetime" : 200,
		"enablehscroll" : 1,
		"enablevscroll" : 1,
		"devicewidth" : 0.0,
		"description" : "",
		"digest" : "",
		"tags" : "",
		"style" : "",
		"subpatcher_template" : "",
		"boxes" : [ 			{
				"box" : 				{
					"id" : "obj-10",
					"maxclass" : "comment",
					"numinlets" : 1,
					"numoutlets" : 0,
					"patching_rect" : [ 581.929565, 430.0, 47.0, 20.0 ],
					"presentation" : 1,
					"presentation_rect" : [ 206.0, 15.0, 47.0, 20.0 ],
					"style" : "",
					"text" : "boost",
					"textcolor" : [ 0.862745, 0.870588, 0.878431, 1.0 ]
				}

			}
, 			{
				"box" : 				{
					"annotation" : "none",
					"format" : 6,
					"id" : "obj-11",
					"maxclass" : "flonum",
					"numinlets" : 1,
					"numoutlets" : 2,
					"outlettype" : [ "", "bang" ],
					"parameter_enable" : 0,
					"patching_rect" : [ 630.429565, 430.0, 50.0, 22.0 ],
					"presentation" : 1,
					"presentation_rect" : [ 150.5, 15.0, 50.0, 22.0 ],
					"style" : ""
				}

			}
, 			{
				"box" : 				{
					"id" : "obj-14",
					"maxclass" : "newobj",
					"numinlets" : 1,
					"numoutlets" : 4,
					"outlettype" : [ "", "", "", "" ],
					"patching_rect" : [ 636.429565, 397.0, 87.0, 22.0 ],
					"style" : "",
					"text" : "j.remote boost"
				}

			}
, 			{
				"box" : 				{
					"activebgoncolor" : [ 0.741176, 0.356863, 0.047059, 1.0 ],
					"annotation" : "none",
					"automation" : "Orages",
					"automationon" : "Orages",
					"fontsize" : 16.0,
					"id" : "obj-13",
					"maxclass" : "live.text",
					"numinlets" : 1,
					"numoutlets" : 2,
					"outlettype" : [ "", "" ],
					"parameter_enable" : 1,
					"patching_rect" : [ 295.508789, 82.0, 106.307373, 32.0 ],
					"presentation" : 1,
					"presentation_rect" : [ 15.0, 15.0, 106.307373, 32.0 ],
					"saved_attribute_attributes" : 					{
						"valueof" : 						{
							"parameter_longname" : "live.text[16]",
							"parameter_shortname" : "live.text[3]",
							"parameter_type" : 2,
							"parameter_mmax" : 1.0,
							"parameter_enum" : [ "Orages", "Orages" ]
						}

					}
,
					"text" : "Attente",
					"texton" : "Attente",
					"varname" : "live.text[1]"
				}

			}
, 			{
				"box" : 				{
					"id" : "obj-12",
					"maxclass" : "newobj",
					"numinlets" : 1,
					"numoutlets" : 4,
					"outlettype" : [ "", "", "", "" ],
					"patching_rect" : [ 194.0, 87.0, 84.0, 22.0 ],
					"style" : "",
					"text" : "j.remote onoff"
				}

			}
, 			{
				"box" : 				{
					"comment" : "",
					"id" : "obj-9",
					"maxclass" : "outlet",
					"numinlets" : 1,
					"numoutlets" : 0,
					"patching_rect" : [ 194.0, 128.0, 30.0, 30.0 ],
					"style" : ""
				}

			}
, 			{
				"box" : 				{
					"comment" : "",
					"id" : "obj-7",
					"maxclass" : "outlet",
					"numinlets" : 1,
					"numoutlets" : 0,
					"patching_rect" : [ 50.0, 128.0, 30.0, 30.0 ],
					"style" : ""
				}

			}
, 			{
				"box" : 				{
					"comment" : "",
					"id" : "obj-5",
					"maxclass" : "inlet",
					"numinlets" : 0,
					"numoutlets" : 1,
					"outlettype" : [ "" ],
					"patching_rect" : [ 194.0, 40.0, 30.0, 30.0 ],
					"style" : ""
				}

			}
, 			{
				"box" : 				{
					"id" : "obj-3",
					"maxclass" : "newobj",
					"numinlets" : 1,
					"numoutlets" : 2,
					"outlettype" : [ "", "" ],
					"patching_rect" : [ 50.0, 87.0, 41.0, 22.0 ],
					"style" : "",
					"text" : "j.view"
				}

			}
, 			{
				"box" : 				{
					"id" : "obj-53",
					"maxclass" : "comment",
					"numinlets" : 1,
					"numoutlets" : 0,
					"patching_rect" : [ 589.0, 160.0, 33.0, 20.0 ],
					"presentation" : 1,
					"presentation_rect" : [ 17.0, 64.578949, 33.0, 20.0 ],
					"style" : "",
					"text" : "mult",
					"textcolor" : [ 0.862745, 0.870588, 0.878431, 1.0 ]
				}

			}
, 			{
				"box" : 				{
					"id" : "obj-52",
					"maxclass" : "comment",
					"numinlets" : 1,
					"numoutlets" : 0,
					"patching_rect" : [ 581.929565, 357.0, 47.0, 20.0 ],
					"presentation" : 1,
					"presentation_rect" : [ 15.929565, 162.315796, 47.0, 20.0 ],
					"style" : "",
					"text" : "courbe",
					"textcolor" : [ 0.862745, 0.870588, 0.878431, 1.0 ]
				}

			}
, 			{
				"box" : 				{
					"id" : "obj-51",
					"maxclass" : "comment",
					"numinlets" : 1,
					"numoutlets" : 0,
					"patching_rect" : [ 599.929565, 289.0, 33.0, 20.0 ],
					"presentation" : 1,
					"presentation_rect" : [ 27.929565, 128.657898, 33.0, 20.0 ],
					"style" : "",
					"text" : "max",
					"textcolor" : [ 0.862745, 0.870588, 0.878431, 1.0 ]
				}

			}
, 			{
				"box" : 				{
					"id" : "obj-50",
					"maxclass" : "comment",
					"numinlets" : 1,
					"numoutlets" : 0,
					"patching_rect" : [ 575.0, 224.0, 30.0, 20.0 ],
					"presentation" : 1,
					"presentation_rect" : [ 18.5, 97.0, 30.0, 20.0 ],
					"style" : "",
					"text" : "min",
					"textcolor" : [ 0.862745, 0.870588, 0.878431, 1.0 ]
				}

			}
, 			{
				"box" : 				{
					"annotation" : "none",
					"format" : 6,
					"id" : "obj-43",
					"maxclass" : "flonum",
					"numinlets" : 1,
					"numoutlets" : 2,
					"outlettype" : [ "", "bang" ],
					"parameter_enable" : 0,
					"patching_rect" : [ 630.429565, 357.0, 50.0, 22.0 ],
					"presentation" : 1,
					"presentation_rect" : [ 64.429565, 162.315796, 50.0, 22.0 ],
					"style" : ""
				}

			}
, 			{
				"box" : 				{
					"fontsize" : 16.0,
					"id" : "obj-42",
					"maxclass" : "comment",
					"numinlets" : 1,
					"numoutlets" : 0,
					"patching_rect" : [ 162.0, 197.0, 47.0, 24.0 ],
					"presentation" : 1,
					"presentation_rect" : [ 157.0, 160.315796, 47.0, 24.0 ],
					"style" : "",
					"text" : "Slide",
					"textcolor" : [ 0.862745, 0.870588, 0.878431, 1.0 ]
				}

			}
, 			{
				"box" : 				{
					"id" : "obj-41",
					"maxclass" : "comment",
					"numinlets" : 1,
					"numoutlets" : 0,
					"patching_rect" : [ 440.0, 359.0, 65.0, 20.0 ],
					"presentation" : 1,
					"presentation_rect" : [ 211.0, 150.0, 65.0, 20.0 ],
					"style" : "",
					"text" : "Horizontal",
					"textcolor" : [ 0.862745, 0.870588, 0.878431, 1.0 ]
				}

			}
, 			{
				"box" : 				{
					"id" : "obj-35",
					"maxclass" : "newobj",
					"numinlets" : 1,
					"numoutlets" : 4,
					"outlettype" : [ "", "", "", "" ],
					"patching_rect" : [ 632.429565, 132.0, 111.0, 22.0 ],
					"style" : "",
					"text" : "j.remote noisemult"
				}

			}
, 			{
				"box" : 				{
					"id" : "obj-36",
					"maxclass" : "newobj",
					"numinlets" : 1,
					"numoutlets" : 4,
					"outlettype" : [ "", "", "", "" ],
					"patching_rect" : [ 636.429565, 324.0, 77.0, 22.0 ],
					"style" : "",
					"text" : "j.remote exp"
				}

			}
, 			{
				"box" : 				{
					"id" : "obj-39",
					"maxclass" : "newobj",
					"numinlets" : 1,
					"numoutlets" : 4,
					"outlettype" : [ "", "", "", "" ],
					"patching_rect" : [ 636.429565, 257.0, 80.0, 22.0 ],
					"style" : "",
					"text" : "j.remote max"
				}

			}
, 			{
				"box" : 				{
					"id" : "obj-40",
					"maxclass" : "newobj",
					"numinlets" : 1,
					"numoutlets" : 4,
					"outlettype" : [ "", "", "", "" ],
					"patching_rect" : [ 636.429565, 195.0, 77.0, 22.0 ],
					"style" : "",
					"text" : "j.remote min"
				}

			}
, 			{
				"box" : 				{
					"annotation" : "none",
					"format" : 6,
					"id" : "obj-29",
					"maxclass" : "flonum",
					"numinlets" : 1,
					"numoutlets" : 2,
					"outlettype" : [ "", "bang" ],
					"parameter_enable" : 0,
					"patching_rect" : [ 440.0, 310.0, 45.0, 22.0 ],
					"presentation" : 1,
					"presentation_rect" : [ 216.0, 172.0, 45.0, 22.0 ],
					"style" : ""
				}

			}
, 			{
				"box" : 				{
					"id" : "obj-26",
					"maxclass" : "newobj",
					"numinlets" : 1,
					"numoutlets" : 4,
					"outlettype" : [ "", "", "", "" ],
					"patching_rect" : [ 440.0, 263.0, 107.0, 22.0 ],
					"style" : "",
					"text" : "j.remote scanslide"
				}

			}
, 			{
				"box" : 				{
					"id" : "obj-19",
					"maxclass" : "newobj",
					"numinlets" : 1,
					"numoutlets" : 4,
					"outlettype" : [ "", "", "", "" ],
					"patching_rect" : [ 283.5, 263.0, 146.0, 22.0 ],
					"style" : "",
					"text" : "j.remote noise/slide/down"
				}

			}
, 			{
				"box" : 				{
					"id" : "obj-20",
					"maxclass" : "newobj",
					"numinlets" : 1,
					"numoutlets" : 4,
					"outlettype" : [ "", "", "", "" ],
					"patching_rect" : [ 234.0, 233.0, 131.0, 22.0 ],
					"style" : "",
					"text" : "j.remote noise/slide/up"
				}

			}
, 			{
				"box" : 				{
					"annotation" : "none",
					"format" : 6,
					"id" : "obj-21",
					"maxclass" : "flonum",
					"numinlets" : 1,
					"numoutlets" : 2,
					"outlettype" : [ "", "bang" ],
					"parameter_enable" : 0,
					"patching_rect" : [ 318.0, 318.0, 45.0, 22.0 ],
					"presentation" : 1,
					"presentation_rect" : [ 217.0, 122.0, 45.0, 22.0 ],
					"style" : ""
				}

			}
, 			{
				"box" : 				{
					"annotation" : "none",
					"format" : 6,
					"id" : "obj-22",
					"maxclass" : "flonum",
					"numinlets" : 1,
					"numoutlets" : 2,
					"outlettype" : [ "", "bang" ],
					"parameter_enable" : 0,
					"patching_rect" : [ 238.0, 318.0, 50.0, 22.0 ],
					"presentation" : 1,
					"presentation_rect" : [ 162.0, 122.0, 50.0, 22.0 ],
					"style" : ""
				}

			}
, 			{
				"box" : 				{
					"id" : "obj-4",
					"maxclass" : "newobj",
					"numinlets" : 1,
					"numoutlets" : 4,
					"outlettype" : [ "", "", "", "" ],
					"patching_rect" : [ 77.5, 263.0, 134.0, 22.0 ],
					"style" : "",
					"text" : "j.remote out/slide/down"
				}

			}
, 			{
				"box" : 				{
					"id" : "obj-6",
					"maxclass" : "newobj",
					"numinlets" : 1,
					"numoutlets" : 4,
					"outlettype" : [ "", "", "", "" ],
					"patching_rect" : [ 28.0, 233.0, 119.0, 22.0 ],
					"style" : "",
					"text" : "j.remote out/slide/up"
				}

			}
, 			{
				"box" : 				{
					"annotation" : "none",
					"format" : 6,
					"id" : "obj-1",
					"maxclass" : "flonum",
					"numinlets" : 1,
					"numoutlets" : 2,
					"outlettype" : [ "", "bang" ],
					"parameter_enable" : 0,
					"patching_rect" : [ 112.0, 318.0, 45.0, 22.0 ],
					"presentation" : 1,
					"presentation_rect" : [ 211.0, 68.0, 45.0, 22.0 ],
					"style" : ""
				}

			}
, 			{
				"box" : 				{
					"annotation" : "none",
					"format" : 6,
					"id" : "obj-2",
					"maxclass" : "flonum",
					"numinlets" : 1,
					"numoutlets" : 2,
					"outlettype" : [ "", "bang" ],
					"parameter_enable" : 0,
					"patching_rect" : [ 32.0, 318.0, 50.0, 22.0 ],
					"presentation" : 1,
					"presentation_rect" : [ 157.0, 68.0, 50.0, 22.0 ],
					"style" : ""
				}

			}
, 			{
				"box" : 				{
					"id" : "obj-101",
					"maxclass" : "comment",
					"numinlets" : 1,
					"numoutlets" : 0,
					"patching_rect" : [ 264.0, 367.0, 95.0, 20.0 ],
					"presentation" : 1,
					"presentation_rect" : [ 162.0, 96.0, 95.0, 20.0 ],
					"style" : "",
					"text" : "noise up / down",
					"textcolor" : [ 0.862745, 0.870588, 0.878431, 1.0 ]
				}

			}
, 			{
				"box" : 				{
					"id" : "obj-100",
					"maxclass" : "comment",
					"numinlets" : 1,
					"numoutlets" : 0,
					"patching_rect" : [ 44.0, 371.0, 99.0, 20.0 ],
					"presentation" : 1,
					"presentation_rect" : [ 162.0, 43.0, 99.0, 20.0 ],
					"style" : "",
					"text" : "sortie up / down",
					"textcolor" : [ 0.862745, 0.870588, 0.878431, 1.0 ]
				}

			}
, 			{
				"box" : 				{
					"annotation" : "none",
					"format" : 6,
					"id" : "obj-37",
					"maxclass" : "flonum",
					"numinlets" : 1,
					"numoutlets" : 2,
					"outlettype" : [ "", "bang" ],
					"parameter_enable" : 0,
					"patching_rect" : [ 636.429565, 288.0, 50.0, 22.0 ],
					"presentation" : 1,
					"presentation_rect" : [ 64.429565, 127.263153, 50.0, 22.0 ],
					"style" : ""
				}

			}
, 			{
				"box" : 				{
					"annotation" : "none",
					"format" : 6,
					"id" : "obj-27",
					"maxclass" : "flonum",
					"numinlets" : 1,
					"numoutlets" : 2,
					"outlettype" : [ "", "bang" ],
					"parameter_enable" : 0,
					"patching_rect" : [ 636.429565, 224.0, 50.0, 22.0 ],
					"presentation" : 1,
					"presentation_rect" : [ 64.429565, 97.0, 50.0, 22.0 ],
					"style" : ""
				}

			}
, 			{
				"box" : 				{
					"annotation" : "none",
					"format" : 6,
					"id" : "obj-24",
					"maxclass" : "flonum",
					"numinlets" : 1,
					"numoutlets" : 2,
					"outlettype" : [ "", "bang" ],
					"parameter_enable" : 0,
					"patching_rect" : [ 636.429565, 160.0, 50.0, 22.0 ],
					"presentation" : 1,
					"presentation_rect" : [ 64.429565, 64.578949, 50.0, 22.0 ],
					"style" : ""
				}

			}
, 			{
				"box" : 				{
					"comment" : "",
					"id" : "obj-8",
					"maxclass" : "inlet",
					"numinlets" : 0,
					"numoutlets" : 1,
					"outlettype" : [ "" ],
					"patching_rect" : [ 50.0, 40.0, 30.0, 30.0 ],
					"style" : ""
				}

			}
 ],
		"lines" : [ 			{
				"patchline" : 				{
					"destination" : [ "obj-4", 0 ],
					"disabled" : 0,
					"hidden" : 0,
					"source" : [ "obj-1", 0 ]
				}

			}
, 			{
				"patchline" : 				{
					"destination" : [ "obj-14", 0 ],
					"disabled" : 0,
					"hidden" : 0,
					"source" : [ "obj-11", 0 ]
				}

			}
, 			{
				"patchline" : 				{
					"destination" : [ "obj-13", 0 ],
					"disabled" : 0,
					"hidden" : 0,
					"source" : [ "obj-12", 0 ]
				}

			}
, 			{
				"patchline" : 				{
					"destination" : [ "obj-9", 0 ],
					"disabled" : 0,
					"hidden" : 0,
					"source" : [ "obj-12", 0 ]
				}

			}
, 			{
				"patchline" : 				{
					"destination" : [ "obj-12", 0 ],
					"disabled" : 0,
					"hidden" : 0,
					"source" : [ "obj-13", 0 ]
				}

			}
, 			{
				"patchline" : 				{
					"destination" : [ "obj-11", 0 ],
					"disabled" : 0,
					"hidden" : 0,
					"source" : [ "obj-14", 0 ]
				}

			}
, 			{
				"patchline" : 				{
					"destination" : [ "obj-21", 0 ],
					"disabled" : 0,
					"hidden" : 0,
					"source" : [ "obj-19", 0 ]
				}

			}
, 			{
				"patchline" : 				{
					"destination" : [ "obj-6", 0 ],
					"disabled" : 0,
					"hidden" : 0,
					"source" : [ "obj-2", 0 ]
				}

			}
, 			{
				"patchline" : 				{
					"destination" : [ "obj-22", 0 ],
					"disabled" : 0,
					"hidden" : 0,
					"source" : [ "obj-20", 0 ]
				}

			}
, 			{
				"patchline" : 				{
					"destination" : [ "obj-19", 0 ],
					"disabled" : 0,
					"hidden" : 0,
					"source" : [ "obj-21", 0 ]
				}

			}
, 			{
				"patchline" : 				{
					"destination" : [ "obj-20", 0 ],
					"disabled" : 0,
					"hidden" : 0,
					"source" : [ "obj-22", 0 ]
				}

			}
, 			{
				"patchline" : 				{
					"destination" : [ "obj-35", 0 ],
					"disabled" : 0,
					"hidden" : 0,
					"source" : [ "obj-24", 0 ]
				}

			}
, 			{
				"patchline" : 				{
					"destination" : [ "obj-29", 0 ],
					"disabled" : 0,
					"hidden" : 0,
					"source" : [ "obj-26", 0 ]
				}

			}
, 			{
				"patchline" : 				{
					"destination" : [ "obj-40", 0 ],
					"disabled" : 0,
					"hidden" : 0,
					"source" : [ "obj-27", 0 ]
				}

			}
, 			{
				"patchline" : 				{
					"destination" : [ "obj-26", 0 ],
					"disabled" : 0,
					"hidden" : 0,
					"source" : [ "obj-29", 0 ]
				}

			}
, 			{
				"patchline" : 				{
					"destination" : [ "obj-7", 0 ],
					"disabled" : 0,
					"hidden" : 0,
					"source" : [ "obj-3", 0 ]
				}

			}
, 			{
				"patchline" : 				{
					"destination" : [ "obj-24", 0 ],
					"disabled" : 0,
					"hidden" : 0,
					"source" : [ "obj-35", 0 ]
				}

			}
, 			{
				"patchline" : 				{
					"destination" : [ "obj-43", 0 ],
					"disabled" : 0,
					"hidden" : 0,
					"source" : [ "obj-36", 0 ]
				}

			}
, 			{
				"patchline" : 				{
					"destination" : [ "obj-39", 0 ],
					"disabled" : 0,
					"hidden" : 0,
					"source" : [ "obj-37", 0 ]
				}

			}
, 			{
				"patchline" : 				{
					"destination" : [ "obj-37", 0 ],
					"disabled" : 0,
					"hidden" : 0,
					"source" : [ "obj-39", 0 ]
				}

			}
, 			{
				"patchline" : 				{
					"destination" : [ "obj-1", 0 ],
					"disabled" : 0,
					"hidden" : 0,
					"source" : [ "obj-4", 0 ]
				}

			}
, 			{
				"patchline" : 				{
					"destination" : [ "obj-27", 0 ],
					"disabled" : 0,
					"hidden" : 0,
					"source" : [ "obj-40", 0 ]
				}

			}
, 			{
				"patchline" : 				{
					"destination" : [ "obj-36", 0 ],
					"disabled" : 0,
					"hidden" : 0,
					"source" : [ "obj-43", 0 ]
				}

			}
, 			{
				"patchline" : 				{
					"destination" : [ "obj-12", 0 ],
					"disabled" : 0,
					"hidden" : 0,
					"source" : [ "obj-5", 0 ]
				}

			}
, 			{
				"patchline" : 				{
					"destination" : [ "obj-2", 0 ],
					"disabled" : 0,
					"hidden" : 0,
					"source" : [ "obj-6", 0 ]
				}

			}
, 			{
				"patchline" : 				{
					"destination" : [ "obj-3", 0 ],
					"disabled" : 0,
					"hidden" : 0,
					"source" : [ "obj-8", 0 ]
				}

			}
 ],
		"styles" : [ 			{
				"name" : "default_PB",
				"parentstyle" : "",
				"multi" : 0
			}
, 			{
				"name" : "umenuPB",
				"default" : 				{
					"fontsize" : [ 9.0 ],
					"textjustification" : [ 1 ]
				}
,
				"parentstyle" : "",
				"multi" : 0
			}
 ]
	}

}
