#N canvas 1 98 450 300 10;
#X obj 149 168 unpack 0 0 0 0 0 0 0 0 0 0;
#X obj 122 135 t b a;
#X obj 149 194 sprintf %c%c%c%c%c%c%c%c%c%c;
#X obj 122 113 list-pad 10 48;
#X obj 149 249 outlet;
#X obj 122 90 inlet;
#X obj 149 216 atoi;
#X connect 0 0 2 0;
#X connect 0 1 2 1;
#X connect 0 2 2 2;
#X connect 0 3 2 3;
#X connect 0 4 2 4;
#X connect 0 5 2 5;
#X connect 0 6 2 6;
#X connect 0 7 2 7;
#X connect 0 8 2 8;
#X connect 0 9 2 9;
#X connect 1 1 0 0;
#X connect 2 0 6 0;
#X connect 3 0 1 0;
#X connect 5 0 3 0;
#X connect 6 0 4 0;
