#N canvas 926 476 450 394 10;
#X obj 180 88 inlet;
#X obj 199 136 list split 1;
#X obj 199 158 t b a;
#X obj 248 186 list;
#X obj 213 387 outlet;
#X obj 226 213 sel \$1;
#X obj 234 295 list;
#X obj 213 317 list;
#X obj 180 110 t b a b;
#X obj 234 273 list prepend;
#X obj 213 339 t a;
#X obj 259 235 t f b;
#X obj 196 238 t b b;
#X obj 180 274 once;
#X text 30 35 split a list in several sub lists when special char appear
;
#X connect 0 0 8 0;
#X connect 1 0 2 0;
#X connect 1 1 3 1;
#X connect 2 0 3 0;
#X connect 2 1 5 0;
#X connect 3 0 1 0;
#X connect 5 0 12 0;
#X connect 5 1 11 0;
#X connect 6 0 7 1;
#X connect 6 0 9 1;
#X connect 7 0 10 0;
#X connect 8 0 13 0;
#X connect 8 1 1 0;
#X connect 8 2 9 1;
#X connect 9 0 6 0;
#X connect 10 0 4 0;
#X connect 11 0 9 0;
#X connect 11 1 13 1;
#X connect 12 0 13 0;
#X connect 12 1 9 1;
#X connect 13 0 7 0;
