#N canvas 930 464 450 300 10;
#X obj 180 88 inlet;
#X obj 180 116 list split 1;
#X obj 180 138 t b a;
#X obj 229 166 list;
#X obj 207 215 outlet;
#X text 109 51 iterate each element of a list one by one;
#X connect 0 0 1 0;
#X connect 1 0 2 0;
#X connect 1 1 3 1;
#X connect 2 0 3 0;
#X connect 2 1 4 0;
#X connect 3 0 1 0;
