#N canvas 620 90 450 722 10;
#X declare -lib zexy;
#X declare -lib zexy;
#X msg 238 93 close;
#X obj 233 222 list prepend;
#X obj 212 139 sel 13;
#X obj 233 244 list;
#X obj 212 177 t b b;
#X obj 212 275 list;
#X obj 33 74 declare -lib zexy;
#X obj 212 305 route 10;
#X obj 212 117 comport 32 9600;
#X msg 212 69 open 32;
#X obj 239 396 listfind 9;
#X obj 239 353 t b a;
#X msg 239 375 9;
#X obj 212 455 list split;
#X obj 212 327 t a a;
#X text 289 241 groupe par ligne;
#X text 288 370 split at tab character;
#X obj 240 481 route 9;
#X msg 12 580 51 51;
#X obj 5 629 print;
#X obj 5 606 makefilename %c;
#X obj 51 234 symbol2list;
#X obj 265 582 sprintf %c%c%c%c;
#X obj 265 542 unpack 0 0 0 0;
#X obj 265 604 print;
#X obj 45 333 list-rev;
#X connect 0 0 8 0;
#X connect 1 0 3 0;
#X connect 2 0 4 0;
#X connect 2 1 1 0;
#X connect 3 0 1 1;
#X connect 3 0 5 1;
#X connect 4 0 5 0;
#X connect 4 1 1 1;
#X connect 5 0 7 0;
#X connect 7 0 14 0;
#X connect 8 0 2 0;
#X connect 9 0 8 0;
#X connect 10 0 13 1;
#X connect 11 0 12 0;
#X connect 11 1 10 1;
#X connect 12 0 10 0;
#X connect 13 1 17 0;
#X connect 14 0 13 0;
#X connect 14 1 11 0;
#X connect 18 0 20 0;
#X connect 20 0 19 0;
#X connect 22 0 24 0;
#X connect 23 0 22 0;
#X connect 23 1 22 1;
#X connect 23 2 22 2;
#X connect 23 3 22 3;
