#N canvas 271 720 450 300 10;
#X symbolatom 159 57 10 0 0 0 - - -, f 10;
#X obj 172 142 print;
#X msg 178 86 one;
#X msg 213 87 two;
#X msg 251 87 three;
#X symbolatom 209 145 10 0 0 0 - - -, f 10;
#X text 33 176 outpus incomming symbol only if it differs from the
previous one;
#X obj 172 120 sym-change one;
#X obj 155 144 bng 15 250 50 0 empty empty empty 17 7 0 10 -262144
-1 -1;
#X text 103 209 argument sets initial value;
#X connect 0 0 7 0;
#X connect 2 0 7 0;
#X connect 3 0 7 0;
#X connect 4 0 7 0;
#X connect 7 0 1 0;
#X connect 7 0 5 0;
#X connect 7 0 8 0;
