#N canvas 1 224 165 223 10;
#X obj 17 76 t b b;
#X msg 17 124 1;
#X msg 47 124 0;
#X obj 17 180 outlet;
#X obj 17 50 inlet;
#X obj 47 101 delay 100;
#X obj 17 153 change -1;
#X obj 107 26 \$1;
#X obj 107 4 loadbang;
#X msg 107 70 100;
#X obj 107 48 moses 0;
#X connect 0 0 1 0;
#X connect 0 1 5 0;
#X connect 1 0 6 0;
#X connect 2 0 6 0;
#X connect 4 0 0 0;
#X connect 5 0 2 0;
#X connect 6 0 3 0;
#X connect 7 0 10 0;
#X connect 8 0 7 0;
#X connect 9 0 5 1;
#X connect 10 0 9 0;
#X connect 10 1 5 1;
