#N canvas 1028 223 635 654 10;
#X obj 48 261 audiosettings;
#X text 28 20 audiosettings - query and manipulate audio-settings;
#X msg 98 58 listdrivers;
#X msg 100 87 listdevices;
#X msg 105 117 listparams;
#X text 179 56 get available audio drivers;
#X text 181 86 get available devices for current driver;
#X text 183 119 get available parameters for current driver/device
;
#N canvas 104 632 809 300 set 0;
#X obj 61 259 outlet;
#X text 327 55 set driver to "ALSA" (if possible);
#X msg 130 119 params @samplerate 48000;
#X text 288 118 set samplerate to 48kHz;
#X text 432 165 choose (input-device #1) AND (output-device #2) AND
(samplerate=48kHz);
#X msg 135 168 params @input 0 2 @output 0 2 @samplerate 48000;
#X msg 61 56 driver ALSA \, params @output 0 2;
#X connect 2 0 0 0;
#X connect 5 0 0 0;
#X connect 6 0 0 0;
#X restore 114 181 pd set;
#X msg 140 227 getdriver;
#X msg 175 266 bang;
#X msg 239 230 params @samplerate 48000;
#X obj 141 306 route device;
#X obj 141 328 route out;
#X obj 141 350 route devices;
#X obj 320 373 unpack f s;
#X obj 320 524 spigot;
#X obj 377 401 symbol2list;
#X obj 377 421 list2symbol _;
#X obj 377 441 sel HDA_Intel_PCH_(hardware);
#X msg 377 483 1;
#X msg 417 493 0;
#X obj 417 473 t b;
#X obj 320 546 print;
#X msg 155 586 driver ALSA \, params @output \$1 2;
#X connect 0 0 12 0;
#X connect 2 0 0 0;
#X connect 3 0 0 0;
#X connect 4 0 0 0;
#X connect 8 0 0 0;
#X connect 9 0 0 0;
#X connect 10 0 0 0;
#X connect 11 0 0 0;
#X connect 12 0 13 0;
#X connect 13 0 14 0;
#X connect 14 1 15 0;
#X connect 15 0 16 0;
#X connect 15 1 17 0;
#X connect 16 0 23 0;
#X connect 16 0 24 0;
#X connect 17 0 18 0;
#X connect 18 0 19 0;
#X connect 19 0 20 0;
#X connect 19 1 22 0;
#X connect 20 0 16 1;
#X connect 21 0 16 1;
#X connect 22 0 21 0;
#X connect 24 0 0 0;
