#N canvas 85 571 423 467 10;
#X declare -path pd-externals/puremapping;
#X declare -path pd-externals;
#X declare -path pd-externals/iem_tab -lib iem_tab;
#X declare -path pd-externals/abs_light;
#X declare -path pd-externals/share_mem;
#X declare -path pd-externals/comport;
#X declare -path abs;
#X declare -path pd-externals/av;
#X declare -path pd-externals/net;
#X declare -path ~/pd-externals/osc;
#X floatatom 16 92 5 0 0 1 ms - -, f 5;
#N canvas 1133 578 568 502 comports 0;
#X obj 216 71 r to-all-arduino;
#X obj 216 92 s to-arduino-ctl-0;
#X obj 86 388 tgl 15 0 empty empty empty 17 7 0 10 -262144 -1 -1 0
1;
#X obj 52 427 print mon-\$1;
#X obj 52 407 spigot 1;
#X obj 51 292 t a b;
#X obj 61 318 f;
#X obj 61 340 + 1;
#X obj 61 362 < 100;
#X obj 83 107 s OSCdispatch;
#X obj 51 84 t a a;
#N canvas 1199 411 391 669 find_port 0;
#X obj 114 135 route ports;
#X obj 114 229 sym-change;
#X obj 57 114 comport -1;
#X obj 114 188 route 0 1 2 3 4 5 6, f 24;
#X obj 30 5 loadbang;
#X obj 30 25 tgl 15 0 empty empty empty 17 7 0 10 -262144 -1 -1 1 1
;
#X obj 134 249 sym-change;
#X obj 154 269 sym-change;
#X obj 174 289 sym-change;
#X obj 194 309 sym-change;
#X obj 214 329 sym-change;
#X obj 234 349 sym-change;
#X obj 154 627 outlet;
#X obj 114 393 t b;
#X msg 57 94 ports;
#X obj 73 457 spigot;
#X msg 114 415 1;
#X obj 30 64 t b b b, f 20;
#X msg 147 414 0;
#X obj 154 572 loadbang;
#X msg 154 592 retries 0;
#X obj 73 524 t b b;
#X msg 100 550 close;
#X msg 57 550 ports;
#X obj 42 583 comport -1;
#X obj 30 44 metro 1000;
#X obj 297 182 f;
#X obj 282 262 change;
#X obj 114 157 t a b, f 31;
#X obj 297 204 + 1;
#X msg 312 131 0;
#X obj 282 241 f;
#X obj 30 135 t b b;
#X obj 73 479 t b b;
#X obj 175 481 realtime;
#X obj 183 448 t b b;
#X obj 175 526 print [comport];
#X msg 175 504 new interface detected ! \$1 ms;
#X obj 73 502 delay 10000;
#X obj 42 192 symbol foo;
#X obj 42 174 bng 15 250 50 0 empty empty empty 17 7 0 10 -262144 -1
-1;
#X connect 0 0 28 0;
#X connect 1 0 13 0;
#X connect 2 1 0 0;
#X connect 3 0 1 0;
#X connect 3 1 6 0;
#X connect 3 2 7 0;
#X connect 3 3 8 0;
#X connect 3 4 9 0;
#X connect 3 5 10 0;
#X connect 3 6 11 0;
#X connect 4 0 5 0;
#X connect 5 0 25 0;
#X connect 6 0 13 0;
#X connect 7 0 13 0;
#X connect 8 0 13 0;
#X connect 9 0 13 0;
#X connect 10 0 13 0;
#X connect 11 0 13 0;
#X connect 13 0 16 0;
#X connect 14 0 2 0;
#X connect 15 0 33 0;
#X connect 16 0 15 1;
#X connect 17 0 32 0;
#X connect 17 1 14 0;
#X connect 17 2 18 0;
#X connect 17 2 30 0;
#X connect 18 0 15 1;
#X connect 19 0 20 0;
#X connect 20 0 12 0;
#X connect 21 0 23 0;
#X connect 21 1 22 0;
#X connect 22 0 12 0;
#X connect 23 0 24 0;
#X connect 24 1 12 0;
#X connect 25 0 17 0;
#X connect 26 0 29 0;
#X connect 27 0 13 0;
#X connect 28 0 3 0;
#X connect 28 1 26 0;
#X connect 29 0 26 1;
#X connect 29 0 31 1;
#X connect 30 0 26 1;
#X connect 31 0 27 0;
#X connect 32 0 15 0;
#X connect 32 1 31 0;
#X connect 33 0 38 0;
#X connect 33 1 35 0;
#X connect 34 0 37 0;
#X connect 35 0 34 0;
#X connect 35 1 34 1;
#X connect 37 0 36 0;
#X connect 38 0 21 0;
#X connect 39 0 1 0;
#X connect 39 0 6 0;
#X connect 39 0 7 0;
#X connect 39 0 8 0;
#X connect 39 0 9 0;
#X connect 39 0 10 0;
#X connect 39 0 11 0;
#X connect 40 0 39 0;
#X restore 248 14 pd find_port;
#X obj 51 61 connect_board 0;
#X connect 0 0 1 0;
#X connect 2 0 4 1;
#X connect 4 0 3 0;
#X connect 5 0 4 0;
#X connect 5 1 6 0;
#X connect 6 0 7 0;
#X connect 7 0 6 1;
#X connect 7 0 8 0;
#X connect 8 0 2 0;
#X connect 10 1 9 0;
#X connect 11 0 12 1;
#X connect 12 0 10 0;
#X restore 16 49 pd comports;
#X obj 89 50 tgl 15 0 autoConnect empty auto_connect 17 7 0 10 -262144
-1 -1 0 1;
#X text 48 444 Das Körperrauschen - Antoine Villeret 2012 - 2014;
#N canvas 647 647 450 433 init 0;
#X obj 88 124 declare -path pd-externals/puremapping;
#X obj 88 84 declare -path pd-externals;
#X obj 88 145 declare -path pd-externals/iem_tab -lib iem_tab;
#X obj 88 185 declare -path pd-externals/abs_light;
#X obj 88 246 declare -path pd-externals/share_mem;
#X obj 88 266 declare -path pd-externals/comport;
#X obj 88 64 declare -path abs;
#X obj 88 104 declare -path pd-externals/av;
#X obj 88 226 declare -path pd-externals/net;
#X obj 88 205 declare -path ~/pd-externals/osc;
#X restore 214 238 pd init;
#N canvas 399 169 450 520 cpu 0;
#X floatatom 148 306 0 0 0 1 % - -;
#X obj 148 168 cputime;
#X obj 148 28 loadbang;
#X msg 148 56 1;
#X floatatom 148 84 0 0 0 0 - - -;
#X obj 148 140 t b b;
#X obj 148 278 * 0.1;
#X text 193 84 <-- on/off;
#X obj 148 221 iir 15;
#X obj 148 243 int;
#X obj 148 112 metro 1000;
#X obj 151 360 outlet;
#X text 97 307 CPU load;
#X connect 1 0 8 0;
#X connect 2 0 3 0;
#X connect 3 0 4 0;
#X connect 4 0 10 0;
#X connect 5 0 1 0;
#X connect 5 1 1 1;
#X connect 6 0 0 0;
#X connect 6 0 11 0;
#X connect 8 0 9 0;
#X connect 9 0 6 0;
#X connect 10 0 5 0;
#X coords 0 -1 1 1 104 26 1 100 300;
#X restore 214 259 pd cpu;
#N canvas 1 160 450 300 master_clock 0;
#X obj 157 105 metro 10;
#X obj 157 127 s master_clock;
#X obj 157 42 loadbang;
#X msg 157 64 1;
#X obj 157 85 tgl 15 0 empty empty empty 17 7 0 10 -262144 -1 -1 1
1;
#X connect 0 0 1 0;
#X connect 2 0 3 0;
#X connect 3 0 4 0;
#X connect 4 0 0 0;
#X restore 214 49 pd master_clock;
#X msg 176 410 \; board_ontop bang;
#N canvas 653 553 932 443 OSCout 0;
#X obj 155 26 r sendOSC;
#X obj 155 136 packOSC;
#X obj 535 192 spigot;
#X obj 535 339 tgl 15 0 empty empty empty 17 7 0 10 -262144 -1 -1 1
1;
#X obj 586 246 loadbang;
#X obj 558 339 sel 0;
#X obj 558 361 del 1000;
#X msg 569 219 disconnect;
#X obj 155 70 spigot 1;
#X obj 235 27 inlet;
#X obj 235 49 == 0;
#X msg 607 286 multicast_interface lo;
#X obj 535 315 net/udpsend;
#X msg 585 266 connect install.local 8000;
#X obj 512 53 inlet;
#X connect 0 0 8 0;
#X connect 1 0 2 0;
#X connect 2 0 12 0;
#X connect 4 0 13 0;
#X connect 5 0 6 0;
#X connect 6 0 13 0;
#X connect 7 0 12 0;
#X connect 8 0 1 0;
#X connect 9 0 10 0;
#X connect 10 0 8 1;
#X connect 11 0 12 0;
#X connect 12 0 3 0;
#X connect 12 0 2 1;
#X connect 12 0 5 0;
#X connect 13 0 12 0;
#X connect 14 0 12 0;
#X restore 219 375 pd OSCout;
#X obj 202 376 tgl 15 0 empty mute_osc empty 17 7 0 10 -262144 -1 -1
0 1;
#X text 123 375 Mute OSC out;
#X obj 16 69 board_receiver /b00;
#X obj 214 69 board_controler /b00;
#X obj 214 209 board_controler /*;
#N canvas 0 119 450 300 OSCin 1;
#X obj 162 98 net/udpreceive 8001;
#X obj 162 120 osc/unpackOSC;
#X obj 162 142 route /reconnect;
#X obj 162 164 t b;
#X msg 162 186 disconnect;
#X obj 162 208 outlet;
#X obj 291 196 print;
#X obj 261 244 s OSCtoArduino;
#X connect 0 0 1 0;
#X connect 1 0 2 0;
#X connect 2 0 3 0;
#X connect 2 1 6 0;
#X connect 2 1 7 0;
#X connect 3 0 4 0;
#X connect 4 0 5 0;
#X restore 218 348 pd OSCin;
#X connect 9 0 8 0;
#X connect 11 0 0 0;
#X connect 14 0 8 1;
