#N canvas 586 334 725 484 10;
#X obj 162 32 inlet;
#X obj 200 329 outlet;
#X obj 201 80 list length;
#X text 298 36 argument 1 : minimum length of list;
#X text 298 56 argument 2 : pad value (float);
#X obj 162 54 t a a;
#X obj 220 129 - \$1;
#X obj 220 181 max 0;
#X obj 220 203 until;
#X obj 220 247 list;
#X obj 220 269 list;
#X obj 201 102 t b a b;
#X obj 220 225 f \$2;
#X floatatom 283 194 5 0 0 0 - - -;
#X floatatom 343 174 5 0 0 0 - - -;
#X obj 220 151 * -1;
#X text 284 235 append as many number to list to have a minimum length
;
#X text 291 365 Antoine Villeret - 2013;
#X obj 200 296 list prepend;
#X connect 0 0 5 0;
#X connect 2 0 11 0;
#X connect 5 0 18 0;
#X connect 5 1 2 0;
#X connect 6 0 14 0;
#X connect 6 0 15 0;
#X connect 7 0 8 0;
#X connect 8 0 12 0;
#X connect 9 0 10 0;
#X connect 10 0 9 1;
#X connect 10 0 18 1;
#X connect 11 1 6 0;
#X connect 11 2 10 0;
#X connect 12 0 9 0;
#X connect 13 0 12 1;
#X connect 15 0 7 0;
#X connect 18 0 1 0;
