#N canvas 491 256 450 444 10;
#X msg 88 91 list one two three four;
#X obj 88 125 list split;
#X obj 88 264 list split 1;
#X obj 88 354 list append;
#X obj 115 194 list length;
#X obj 88 160 t a a;
#X obj 115 221 - 1;
#X obj 88 302 list append;
#X obj 236 213 t a;
#X obj 88 59 t b a;
#X obj 88 381 print;
#X obj 244 91 list split 1;
#X floatatom 88 11 5 0 0 1 index - -;
#X msg 88 36 \$1 new_symbol;
#X connect 0 0 1 0;
#X connect 1 0 5 0;
#X connect 1 1 8 0;
#X connect 1 2 5 0;
#X connect 2 0 7 0;
#X connect 3 0 10 0;
#X connect 4 0 6 0;
#X connect 5 0 2 0;
#X connect 5 1 4 0;
#X connect 6 0 2 1;
#X connect 7 0 3 0;
#X connect 8 0 3 1;
#X connect 9 0 0 0;
#X connect 9 1 11 0;
#X connect 11 0 1 1;
#X connect 11 1 7 1;
#X connect 12 0 13 0;
#X connect 13 0 9 0;
