#N canvas 616 102 450 722 10;
#X obj 162 32 inlet;
#X obj 189 422 outlet;
#X obj 179 158 list split;
#X obj 201 80 list length;
#X obj 238 130 - 1;
#X obj 210 307 list prepend;
#X obj 210 327 list;
#X obj 189 347 list;
#X obj 201 108 f;
#X obj 207 212 t b a;
#X obj 162 54 t b a a b;
#X obj 215 189 list;
#X obj 118 190 t a b;
#X obj 118 212 route bang;
#X text 268 377 reverse a list;
#X connect 0 0 10 0;
#X connect 2 0 12 0;
#X connect 2 1 11 1;
#X connect 3 0 8 0;
#X connect 4 0 8 1;
#X connect 4 0 2 1;
#X connect 5 0 6 0;
#X connect 6 0 5 1;
#X connect 6 0 7 1;
#X connect 7 0 1 0;
#X connect 8 0 4 0;
#X connect 9 0 8 0;
#X connect 9 1 5 0;
#X connect 10 0 7 0;
#X connect 10 1 2 0;
#X connect 10 2 3 0;
#X connect 10 3 5 1;
#X connect 11 0 9 0;
#X connect 12 0 13 0;
#X connect 12 1 11 0;
#X connect 13 1 2 0;
