#N canvas 393 500 450 300 10;
#X obj 166 55 inlet;
#X obj 246 55 inlet;
#X msg 246 77 1;
#X obj 194 144 t a b;
#X msg 221 168 0;
#X obj 194 122 spigot \$1;
#X obj 194 193 outlet;
#X connect 0 0 5 0;
#X connect 1 0 2 0;
#X connect 2 0 5 1;
#X connect 3 0 6 0;
#X connect 3 1 4 0;
#X connect 4 0 5 1;
#X connect 5 0 3 0;
