#N canvas 415 497 450 300 10;
#X obj 191 128 sym-equal one;
#X msg 186 45 one;
#X obj 191 160 tgl 15 0 empty empty empty 17 7 0 10 -262144 -1 -1 0
1;
#X msg 216 45 two;
#X msg 246 45 three;
#X obj 212 161 bng 15 250 50 0 empty empty empty 17 7 0 10 -262144
-1 -1;
#X msg 256 96 one;
#X msg 286 96 two;
#X msg 316 96 three;
#X text 115 231 argument sets initial value;
#X text 99 213 compare incomming symbols \, works like [==];
#X connect 0 0 2 0;
#X connect 0 0 5 0;
#X connect 1 0 0 0;
#X connect 3 0 0 0;
#X connect 4 0 0 0;
#X connect 6 0 0 1;
#X connect 7 0 0 1;
#X connect 8 0 0 1;
