#N canvas 904 562 450 517 10;
#X obj 176 29 inlet;
#X obj 340 37 inlet;
#X obj 203 114 list fromsymbol;
#X obj 203 260 list-iter;
#X obj 203 281 t f b;
#X obj 298 329 list split 1;
#X obj 298 307 list;
#X obj 203 356 ==;
#X obj 340 79 list fromsymbol;
#X obj 319 259 list;
#X obj 176 69 t b a b;
#X obj 203 419 f;
#X obj 188 454 f;
#X obj 367 122 list length;
#X obj 340 101 t a a;
#X obj 203 136 t a a;
#X obj 230 157 list length;
#X obj 230 177 ==;
#X obj 203 239 spigot;
#X obj 203 387 && 1;
#X msg 236 362 1;
#X obj 261 328 t b;
#X obj 188 476 outlet;
#X text 97 2 compare 2 symbols;
#X obj 230 199 t f f;
#X obj 383 26 loadbang;
#X obj 383 48 symbol \$1;
#X obj 176 49 symbol;
#X obj 340 59 symbol;
#X connect 0 0 27 0;
#X connect 1 0 28 0;
#X connect 2 0 15 0;
#X connect 3 0 4 0;
#X connect 4 0 7 0;
#X connect 4 1 6 0;
#X connect 5 0 7 1;
#X connect 5 1 6 1;
#X connect 6 0 5 0;
#X connect 7 0 19 0;
#X connect 8 0 14 0;
#X connect 9 0 6 1;
#X connect 10 0 12 0;
#X connect 10 1 2 0;
#X connect 10 2 9 0;
#X connect 10 2 21 0;
#X connect 11 0 19 1;
#X connect 11 0 12 1;
#X connect 12 0 22 0;
#X connect 13 0 17 1;
#X connect 14 0 9 1;
#X connect 14 1 13 0;
#X connect 15 0 18 0;
#X connect 15 1 16 0;
#X connect 16 0 17 0;
#X connect 17 0 24 0;
#X connect 18 0 3 0;
#X connect 19 0 11 0;
#X connect 20 0 19 1;
#X connect 21 0 20 0;
#X connect 24 0 18 1;
#X connect 24 1 12 1;
#X connect 25 0 26 0;
#X connect 26 0 8 0;
#X connect 27 0 10 0;
#X connect 28 0 8 0;
