#N canvas 434 402 450 300 10;
#X obj 162 49 inlet;
#X obj 162 91 t a a a;
#X obj 162 189 spigot;
#X obj 162 211 outlet;
#X obj 195 164 == 0;
#X text 71 22 outputs incomming symbol only if it differs from the
previous one;
#X obj 162 71 symbol;
#X obj 195 142 sym-equal \$1;
#X connect 0 0 6 0;
#X connect 1 0 2 0;
#X connect 1 1 7 1;
#X connect 1 2 7 0;
#X connect 2 0 3 0;
#X connect 4 0 2 1;
#X connect 6 0 1 0;
#X connect 7 0 4 0;
